<svg xmlns="http://www.w3.org/2000/svg" width="1200" height="700" viewBox="0 0 1200 700">
  <defs>
    <filter id="shadow" x="-2%" y="-2%" width="104%" height="104%">
      <feDropShadow dx="0" dy="2" stdDeviation="6" flood-opacity="0.1"/>
    </filter>
  </defs>

  <!-- Background -->
  <rect width="1200" height="700" fill="#f8fafc"/>

  <!-- Header Bar -->
  <rect width="1200" height="64" fill="#1a365d"/>
  <text x="40" y="38" font-family="Inter, -apple-system, sans-serif" font-size="18" font-weight="600" fill="#ffffff">Bermuda Tax Information Reporting Portal</text>
  <text x="40" y="54" font-family="Inter, -apple-system, sans-serif" font-size="11" fill="#94a3b8">Ministry of Finance</text>
  <circle cx="1140" cy="32" r="18" fill="none" stroke="#4a7ab5" stroke-width="1.5"/>
  <text x="1140" y="36" font-family="Inter, -apple-system, sans-serif" font-size="9" fill="#4a7ab5" text-anchor="middle">GOV</text>

  <!-- 2FA Setup Card -->
  <rect x="300" y="100" width="600" height="530" rx="12" fill="#ffffff" filter="url(#shadow)"/>

  <!-- Card Title -->
  <text x="600" y="148" font-family="Inter, -apple-system, sans-serif" font-size="20" font-weight="600" fill="#1a365d" text-anchor="middle">Configure Two-Factor Authentication</text>
  <text x="600" y="172" font-family="Inter, -apple-system, sans-serif" font-size="13" fill="#64748b" text-anchor="middle">Scan the QR code below with your authenticator app</text>

  <line x1="340" y1="190" x2="860" y2="190" stroke="#e2e8f0" stroke-width="1"/>

  <!-- QR Code Placeholder -->
  <rect x="480" y="210" width="160" height="160" rx="8" fill="#f1f5f9" stroke="#d1d5db" stroke-width="1"/>
  <!-- QR pattern simulation -->
  <rect x="495" y="225" width="12" height="12" fill="#1a365d"/>
  <rect x="511" y="225" width="12" height="12" fill="#1a365d"/>
  <rect x="527" y="225" width="12" height="12" fill="#1a365d"/>
  <rect x="543" y="225" width="8" height="8" fill="#1a365d"/>
  <rect x="575" y="225" width="12" height="12" fill="#1a365d"/>
  <rect x="591" y="225" width="12" height="12" fill="#1a365d"/>
  <rect x="607" y="225" width="12" height="12" fill="#1a365d"/>

  <rect x="495" y="241" width="12" height="12" fill="#1a365d"/>
  <rect x="527" y="241" width="12" height="12" fill="#1a365d"/>
  <rect x="551" y="241" width="8" height="8" fill="#1a365d"/>
  <rect x="575" y="241" width="12" height="12" fill="#1a365d"/>
  <rect x="607" y="241" width="12" height="12" fill="#1a365d"/>

  <rect x="495" y="257" width="12" height="12" fill="#1a365d"/>
  <rect x="511" y="257" width="12" height="12" fill="#1a365d"/>
  <rect x="527" y="257" width="12" height="12" fill="#1a365d"/>
  <rect x="551" y="257" width="8" height="8" fill="#1a365d"/>
  <rect x="567" y="257" width="8" height="8" fill="#1a365d"/>
  <rect x="575" y="257" width="12" height="12" fill="#1a365d"/>
  <rect x="591" y="257" width="12" height="12" fill="#1a365d"/>
  <rect x="607" y="257" width="12" height="12" fill="#1a365d"/>

  <rect x="495" y="273" width="12" height="12" fill="#1a365d"/>
  <rect x="527" y="273" width="12" height="12" fill="#1a365d"/>
  <rect x="543" y="273" width="8" height="8" fill="#1a365d"/>
  <rect x="559" y="273" width="8" height="8" fill="#1a365d"/>
  <rect x="575" y="273" width="12" height="12" fill="#1a365d"/>
  <rect x="607" y="273" width="12" height="12" fill="#1a365d"/>

  <rect x="495" y="289" width="12" height="12" fill="#1a365d"/>
  <rect x="511" y="289" width="12" height="12" fill="#1a365d"/>
  <rect x="527" y="289" width="12" height="12" fill="#1a365d"/>
  <rect x="559" y="289" width="8" height="8" fill="#1a365d"/>
  <rect x="575" y="289" width="12" height="12" fill="#1a365d"/>
  <rect x="591" y="289" width="12" height="12" fill="#1a365d"/>
  <rect x="607" y="289" width="12" height="12" fill="#1a365d"/>

  <rect x="543" y="305" width="8" height="8" fill="#1a365d"/>
  <rect x="559" y="305" width="8" height="8" fill="#1a365d"/>
  <rect x="511" y="305" width="8" height="8" fill="#1a365d"/>

  <rect x="495" y="321" width="12" height="12" fill="#1a365d"/>
  <rect x="511" y="321" width="12" height="12" fill="#1a365d"/>
  <rect x="527" y="321" width="12" height="12" fill="#1a365d"/>
  <rect x="543" y="321" width="12" height="12" fill="#1a365d"/>
  <rect x="559" y="321" width="8" height="8" fill="#1a365d"/>
  <rect x="575" y="321" width="12" height="12" fill="#1a365d"/>
  <rect x="591" y="321" width="12" height="12" fill="#1a365d"/>
  <rect x="607" y="321" width="12" height="12" fill="#1a365d"/>

  <rect x="495" y="337" width="12" height="12" fill="#1a365d"/>
  <rect x="527" y="337" width="8" height="8" fill="#1a365d"/>
  <rect x="543" y="337" width="8" height="8" fill="#1a365d"/>
  <rect x="575" y="337" width="12" height="12" fill="#1a365d"/>
  <rect x="607" y="337" width="12" height="12" fill="#1a365d"/>

  <rect x="495" y="353" width="12" height="12" fill="#1a365d"/>
  <rect x="511" y="353" width="12" height="12" fill="#1a365d"/>
  <rect x="527" y="353" width="12" height="12" fill="#1a365d"/>
  <rect x="559" y="349" width="8" height="8" fill="#1a365d"/>
  <rect x="575" y="353" width="12" height="12" fill="#1a365d"/>
  <rect x="591" y="353" width="12" height="12" fill="#1a365d"/>
  <rect x="607" y="353" width="12" height="12" fill="#1a365d"/>

  <text x="560" y="385" font-family="Inter, -apple-system, sans-serif" font-size="10" fill="#6b7280" text-anchor="middle">Scan with authenticator app</text>

  <!-- Manual Entry Code -->
  <text x="600" y="415" font-family="Inter, -apple-system, sans-serif" font-size="12" fill="#6b7280" text-anchor="middle">Or enter this code manually:</text>
  <rect x="440" y="425" width="240" height="36" rx="6" fill="#f1f5f9" stroke="#d1d5db" stroke-width="1"/>
  <text x="560" y="449" font-family="Inter, -apple-system, sans-serif" font-size="14" font-weight="600" fill="#1a365d" text-anchor="middle" letter-spacing="2">JBSWY3DPEHPK3PXP</text>

  <!-- 6-digit code input -->
  <text x="600" y="490" font-family="Inter, -apple-system, sans-serif" font-size="13" font-weight="500" fill="#374151" text-anchor="middle">Enter 6-digit verification code</text>

  <!-- Individual digit boxes -->
  <rect x="420" y="500" width="44" height="52" rx="6" fill="#f7f8fa" stroke="#d1d5db" stroke-width="1.5"/>
  <rect x="474" y="500" width="44" height="52" rx="6" fill="#f7f8fa" stroke="#d1d5db" stroke-width="1.5"/>
  <rect x="528" y="500" width="44" height="52" rx="6" fill="#f7f8fa" stroke="#d1d5db" stroke-width="1.5"/>
  <!-- Separator -->
  <rect x="580" y="522" width="8" height="4" rx="2" fill="#d1d5db"/>
  <rect x="592" y="522" width="8" height="4" rx="2" fill="#d1d5db"/>
  <rect x="610" y="500" width="44" height="52" rx="6" fill="#f7f8fa" stroke="#d1d5db" stroke-width="1.5"/>
  <rect x="664" y="500" width="44" height="52" rx="6" fill="#f7f8fa" stroke="#d1d5db" stroke-width="1.5"/>
  <rect x="718" y="500" width="44" height="52" rx="6" fill="#f7f8fa" stroke="#d1d5db" stroke-width="1.5"/>

  <!-- Underscore placeholders -->
  <text x="442" y="534" font-family="Inter, -apple-system, sans-serif" font-size="22" fill="#9ca3af" text-anchor="middle">_</text>
  <text x="496" y="534" font-family="Inter, -apple-system, sans-serif" font-size="22" fill="#9ca3af" text-anchor="middle">_</text>
  <text x="550" y="534" font-family="Inter, -apple-system, sans-serif" font-size="22" fill="#9ca3af" text-anchor="middle">_</text>
  <text x="632" y="534" font-family="Inter, -apple-system, sans-serif" font-size="22" fill="#9ca3af" text-anchor="middle">_</text>
  <text x="686" y="534" font-family="Inter, -apple-system, sans-serif" font-size="22" fill="#9ca3af" text-anchor="middle">_</text>
  <text x="740" y="534" font-family="Inter, -apple-system, sans-serif" font-size="22" fill="#9ca3af" text-anchor="middle">_</text>

  <!-- Verify Button -->
  <rect x="450" y="570" width="220" height="44" rx="8" fill="#2563eb"/>
  <text x="560" y="597" font-family="Inter, -apple-system, sans-serif" font-size="14" font-weight="600" fill="#ffffff" text-anchor="middle">Verify &amp; Enable</text>

  <!-- Helper text -->
  <text x="600" y="640" font-family="Inter, -apple-system, sans-serif" font-size="12" fill="#6b7280" text-anchor="middle">Enter the 6-digit code from your authenticator app</text>

  <!-- Footer -->
  <rect x="0" y="660" width="1200" height="40" fill="#f1f5f9"/>
  <line x1="0" y1="660" x2="1200" y2="660" stroke="#e2e8f0" stroke-width="1"/>
  <text x="600" y="685" font-family="Inter, -apple-system, sans-serif" font-size="12" fill="#64748b" text-anchor="middle">Ministry of Finance, Bermuda</text>
</svg>