<svg xmlns="http://www.w3.org/2000/svg" viewBox="0 0 1200 600" width="1200" height="600">
  <defs>
    <style>
      text { font-family: Inter, -apple-system, sans-serif; }
    </style>
  </defs>

  <!-- Background -->
  <rect width="1200" height="600" fill="#f8fafc"/>

  <!-- Header Bar -->
  <rect width="1200" height="56" fill="#1a365d"/>
  <text x="24" y="35" fill="#ffffff" font-size="15" font-weight="600">Bermuda Tax Information Reporting Portal</text>

  <!-- Navigation Tabs -->
  <rect x="420" y="16" width="70" height="28" rx="4" fill="rgba(255,255,255,0.15)"/>
  <text x="455" y="35" fill="#ffffff" font-size="13" font-weight="500" text-anchor="middle">Filings</text>
  <rect x="420" y="52" width="70" height="4" fill="#60a5fa"/>
  <text x="535" y="35" fill="rgba(255,255,255,0.7)" font-size="13" font-weight="500">Administration</text>

  <!-- User Menu -->
  <text x="1160" y="35" fill="rgba(255,255,255,0.9)" font-size="12" text-anchor="end">compliance@celticfs.bm &#9662;</text>

  <!-- Breadcrumb -->
  <text x="40" y="88" fill="#64748b" font-size="12">Filings</text>
  <text x="75" y="88" fill="#94a3b8" font-size="12">/</text>
  <text x="88" y="88" fill="#1e293b" font-size="12" font-weight="500">Create Filing</text>

  <!-- Page Title -->
  <text x="40" y="130" fill="#1e293b" font-size="22" font-weight="600">Create Filing</text>

  <!-- Form Card -->
  <rect x="40" y="150" width="700" height="400" rx="8" fill="#ffffff" stroke="#e2e8f0" stroke-width="1"/>

  <!-- Filing Name Field -->
  <text x="80" y="200" fill="#374151" font-size="13" font-weight="500">Filing Name</text>
  <rect x="80" y="210" width="600" height="40" rx="6" fill="#f7f8fa" stroke="#d1d5db" stroke-width="1"/>
  <text x="96" y="235" fill="#9ca3af" font-size="13">Enter a name for this filing...</text>

  <!-- Filing Type Field -->
  <text x="80" y="285" fill="#374151" font-size="13" font-weight="500">Filing Type</text>
  <rect x="80" y="295" width="600" height="40" rx="6" fill="#f7f8fa" stroke="#d1d5db" stroke-width="1"/>
  <text x="96" y="320" fill="#1e293b" font-size="13">CRS</text>
  <path d="M660 313l5 5 5-5" fill="none" stroke="#64748b" stroke-width="1.5"/>

  <!-- Dropdown options hint (subtle) -->
  <text x="96" y="350" fill="#94a3b8" font-size="11">Options: CRS, CbC, Primary User Change Notice, Reporting Entity Deactivation</text>

  <!-- Period End Date Field -->
  <text x="80" y="385" fill="#374151" font-size="13" font-weight="500">Period End Date</text>
  <rect x="80" y="395" width="280" height="40" rx="6" fill="#f7f8fa" stroke="#d1d5db" stroke-width="1"/>
  <text x="96" y="420" fill="#1e293b" font-size="13">31/12/2025</text>
  <!-- Calendar icon -->
  <rect x="320" y="405" width="20" height="18" rx="2" fill="none" stroke="#64748b" stroke-width="1.2"/>
  <line x1="325" y1="402" x2="325" y2="407" stroke="#64748b" stroke-width="1.2"/>
  <line x1="335" y1="402" x2="335" y2="407" stroke="#64748b" stroke-width="1.2"/>
  <line x1="320" y1="412" x2="340" y2="412" stroke="#64748b" stroke-width="1.2"/>

  <!-- Buttons -->
  <rect x="80" y="470" width="100" height="40" rx="6" fill="#2563eb"/>
  <text x="130" y="495" fill="#ffffff" font-size="14" font-weight="500" text-anchor="middle">Create</text>

  <text x="220" y="495" fill="#2563eb" font-size="14" font-weight="500">Cancel</text>
</svg>