<svg xmlns="http://www.w3.org/2000/svg" viewBox="0 0 1200 800" width="1200" height="800">
  <defs>
    <style>
      text { font-family: Inter, -apple-system, sans-serif; }
    </style>
  </defs>

  <!-- Background -->
  <rect width="1200" height="800" fill="#f8fafc"/>

  <!-- Header Bar -->
  <rect width="1200" height="56" fill="#1a365d"/>
  <text x="24" y="35" fill="#ffffff" font-size="15" font-weight="600">Bermuda Tax Information Reporting Portal</text>

  <!-- Navigation Tabs -->
  <rect x="420" y="16" width="70" height="28" rx="4" fill="rgba(255,255,255,0.15)"/>
  <text x="455" y="35" fill="#ffffff" font-size="13" font-weight="500" text-anchor="middle">Filings</text>
  <rect x="420" y="52" width="70" height="4" fill="#60a5fa"/>
  <text x="535" y="35" fill="rgba(255,255,255,0.7)" font-size="13" font-weight="500">Administration</text>
  <text x="1160" y="35" fill="rgba(255,255,255,0.9)" font-size="12" text-anchor="end">compliance@celticfs.bm &#9662;</text>

  <!-- Breadcrumb -->
  <text x="40" y="88" fill="#64748b" font-size="12">Filings</text>
  <text x="75" y="88" fill="#94a3b8" font-size="12">/</text>
  <text x="88" y="88" fill="#1e293b" font-size="12" font-weight="500">CRS Annual 2025</text>

  <!-- Page Title + Status Badge -->
  <text x="40" y="130" fill="#1e293b" font-size="22" font-weight="600">CRS Annual 2025</text>
  <rect x="240" y="112" width="62" height="24" rx="12" fill="#fef3c7"/>
  <text x="271" y="128" fill="#92400e" font-size="11" font-weight="600" text-anchor="middle">DRAFT</text>

  <!-- Tabs -->
  <rect x="40" y="150" width="1120" height="44" fill="#ffffff" stroke="#e2e8f0" stroke-width="1"/>
  <!-- Active tab: Upload XML -->
  <text x="80" y="177" fill="#2563eb" font-size="13" font-weight="600">Upload XML</text>
  <rect x="60" y="190" width="80" height="3" fill="#2563eb"/>
  <!-- Tab: Manual Entry -->
  <text x="200" y="177" fill="#64748b" font-size="13" font-weight="500">Manual Entry</text>
  <!-- Tab: Validation Issues -->
  <text x="340" y="177" fill="#64748b" font-size="13" font-weight="500">Validation Issues</text>

  <!-- Content Card -->
  <rect x="40" y="210" width="1120" height="520" rx="8" fill="#ffffff" stroke="#e2e8f0" stroke-width="1"/>

  <!-- Upload Dropzone -->
  <rect x="100" y="260" width="1000" height="220" rx="12" fill="#f8fafc" stroke="#94a3b8" stroke-width="2" stroke-dasharray="8,4"/>

  <!-- Cloud Upload Icon -->
  <g transform="translate(560, 310)">
    <path d="M0 20c-11 0-20-9-20-20 0-9.4 6.5-17.3 15.3-19.4C-2.5-25.5 3.8-30 11-30c8.8 0 16 6.5 17.3 15 8.2 0.8 14.7 7.7 14.7 16 0 8.8-7.2 16-16 16H0z" fill="none" stroke="#64748b" stroke-width="2"/>
    <path d="M2 8l9-9 9 9M11-1v22" fill="none" stroke="#2563eb" stroke-width="2.5" stroke-linecap="round" stroke-linejoin="round"/>
  </g>

  <!-- Upload Text -->
  <text x="600" y="380" fill="#1e293b" font-size="15" font-weight="500" text-anchor="middle">Drag and drop your CRS XML file here, or click to browse</text>
  <text x="600" y="410" fill="#94a3b8" font-size="12" text-anchor="middle">.xml (OECD CRS XML v2.0, max 50MB)</text>

  <!-- Previously Uploaded File -->
  <rect x="100" y="510" width="1000" height="50" rx="6" fill="#f0fdf4" stroke="#86efac" stroke-width="1"/>
  <!-- Checkmark -->
  <circle cx="130" cy="535" r="12" fill="#10b981"/>
  <path d="M124 535l4 4 8-8" fill="none" stroke="#ffffff" stroke-width="2" stroke-linecap="round" stroke-linejoin="round"/>
  <text x="155" y="531" fill="#1e293b" font-size="13" font-weight="500">crs_2025_celtic.xml</text>
  <text x="305" y="531" fill="#64748b" font-size="12">(2.3 MB)</text>
  <text x="155" y="549" fill="#64748b" font-size="12">Uploaded 15 Mar 2026</text>
  <text x="1050" y="539" fill="#2563eb" font-size="12" font-weight="500" text-anchor="end">View Upload History</text>

  <!-- Action Buttons -->
  <rect x="100" y="600" width="160" height="42" rx="6" fill="#2563eb"/>
  <text x="180" y="626" fill="#ffffff" font-size="14" font-weight="500" text-anchor="middle">Validate &amp; Submit</text>

  <rect x="280" y="600" width="140" height="42" rx="6" fill="#ffffff" stroke="#d1d5db" stroke-width="1.5"/>
  <text x="350" y="626" fill="#374151" font-size="14" font-weight="500" text-anchor="middle">Save as Draft</text>
</svg>