<svg xmlns="http://www.w3.org/2000/svg" viewBox="0 0 1200 1200" width="1200" height="1200">
  <defs>
    <style>
      text { font-family: Inter, -apple-system, sans-serif; }
    </style>
  </defs>

  <!-- Background -->
  <rect width="1200" height="1200" fill="#f8fafc"/>

  <!-- Header Bar -->
  <rect width="1200" height="56" fill="#1a365d"/>
  <text x="24" y="35" fill="#ffffff" font-size="15" font-weight="600">Bermuda Tax Information Reporting Portal</text>

  <!-- Navigation Tabs -->
  <rect x="420" y="16" width="70" height="28" rx="4" fill="rgba(255,255,255,0.15)"/>
  <text x="455" y="35" fill="#ffffff" font-size="13" font-weight="500" text-anchor="middle">Filings</text>
  <rect x="420" y="52" width="70" height="4" fill="#60a5fa"/>
  <text x="535" y="35" fill="rgba(255,255,255,0.7)" font-size="13" font-weight="500">Administration</text>
  <text x="1160" y="35" fill="rgba(255,255,255,0.9)" font-size="12" text-anchor="end">compliance@celticfs.bm &#9662;</text>

  <!-- Breadcrumb -->
  <text x="40" y="88" fill="#64748b" font-size="12">Filings</text>
  <text x="75" y="88" fill="#94a3b8" font-size="12">/</text>
  <text x="88" y="88" fill="#1e293b" font-size="12" font-weight="500">CRS Annual 2025</text>

  <!-- Page Title + Status Badge -->
  <text x="40" y="130" fill="#1e293b" font-size="22" font-weight="600">CRS Annual 2025</text>
  <rect x="240" y="112" width="62" height="24" rx="12" fill="#fef3c7"/>
  <text x="271" y="128" fill="#92400e" font-size="11" font-weight="600" text-anchor="middle">DRAFT</text>

  <!-- Tabs -->
  <rect x="40" y="150" width="1120" height="44" fill="#ffffff" stroke="#e2e8f0" stroke-width="1"/>
  <text x="80" y="177" fill="#64748b" font-size="13" font-weight="500">Upload XML</text>
  <!-- Active tab: Manual Entry -->
  <text x="200" y="177" fill="#2563eb" font-size="13" font-weight="600">Manual Entry</text>
  <rect x="180" y="190" width="90" height="3" fill="#2563eb"/>
  <text x="340" y="177" fill="#64748b" font-size="13" font-weight="500">Validation Issues</text>

  <!-- Reporting FI Section -->
  <rect x="40" y="210" width="1120" height="290" rx="8" fill="#ffffff" stroke="#e2e8f0" stroke-width="1"/>

  <!-- Section Header with collapse toggle -->
  <text x="80" y="248" fill="#1e293b" font-size="16" font-weight="600">Reporting Financial Institution</text>
  <path d="M1120 240l6 8-6 8" fill="none" stroke="#64748b" stroke-width="1.5" transform="rotate(90, 1120, 244)"/>

  <!-- FI Name -->
  <text x="80" y="290" fill="#374151" font-size="13" font-weight="500">FI Name</text>
  <rect x="80" y="300" width="500" height="38" rx="6" fill="#f7f8fa" stroke="#d1d5db" stroke-width="1"/>
  <text x="96" y="324" fill="#1e293b" font-size="13">Celtic Financial Services Ltd</text>

  <!-- FI TIN -->
  <text x="620" y="290" fill="#374151" font-size="13" font-weight="500">FI TIN</text>
  <rect x="620" y="300" width="300" height="38" rx="6" fill="#f7f8fa" stroke="#d1d5db" stroke-width="1"/>
  <text x="636" y="324" fill="#1e293b" font-size="13">BM123456789</text>

  <!-- Address Line 1 -->
  <text x="80" y="370" fill="#374151" font-size="13" font-weight="500">Address Line 1</text>
  <rect x="80" y="380" width="500" height="38" rx="6" fill="#f7f8fa" stroke="#d1d5db" stroke-width="1"/>
  <text x="96" y="404" fill="#1e293b" font-size="13">12 Parliament Street</text>

  <!-- City -->
  <text x="620" y="370" fill="#374151" font-size="13" font-weight="500">City</text>
  <rect x="620" y="380" width="200" height="38" rx="6" fill="#f7f8fa" stroke="#d1d5db" stroke-width="1"/>
  <text x="636" y="404" fill="#1e293b" font-size="13">Hamilton</text>

  <!-- Country -->
  <text x="860" y="370" fill="#374151" font-size="13" font-weight="500">Country</text>
  <rect x="860" y="380" width="140" height="38" rx="6" fill="#f7f8fa" stroke="#d1d5db" stroke-width="1"/>
  <text x="876" y="404" fill="#1e293b" font-size="13">Bermuda (BM)</text>

  <!-- Postal Code -->
  <text x="80" y="445" fill="#374151" font-size="13" font-weight="500">Postal Code</text>
  <rect x="80" y="455" width="200" height="38" rx="6" fill="#f7f8fa" stroke="#d1d5db" stroke-width="1"/>
  <text x="96" y="479" fill="#1e293b" font-size="13">HM 11</text>

  <!-- Account Reports Section -->
  <rect x="40" y="520" width="1120" height="420" rx="8" fill="#ffffff" stroke="#e2e8f0" stroke-width="1"/>

  <!-- Section Header -->
  <text x="80" y="560" fill="#1e293b" font-size="16" font-weight="600">Account Reports</text>
  <text x="245" y="560" fill="#64748b" font-size="13">(2 accounts)</text>

  <!-- Add Account Button -->
  <rect x="920" y="538" width="200" height="34" rx="6" fill="#ffffff" stroke="#2563eb" stroke-width="1.5"/>
  <text x="1020" y="560" fill="#2563eb" font-size="13" font-weight="500" text-anchor="middle">+ Add Account Report</text>

  <!-- Table Header -->
  <rect x="80" y="580" width="1040" height="40" rx="4" fill="#f1f5f9"/>
  <text x="100" y="605" fill="#475569" font-size="11" font-weight="600">#</text>
  <text x="130" y="605" fill="#475569" font-size="11" font-weight="600">Account Holder</text>
  <text x="320" y="605" fill="#475569" font-size="11" font-weight="600">TIN</text>
  <text x="520" y="605" fill="#475569" font-size="11" font-weight="600">Account No</text>
  <text x="750" y="605" fill="#475569" font-size="11" font-weight="600">Balance</text>
  <text x="920" y="605" fill="#475569" font-size="11" font-weight="600">Actions</text>

  <!-- Table Row 1 -->
  <rect x="80" y="620" width="1040" height="50" fill="#ffffff"/>
  <line x1="80" y1="670" x2="1120" y2="670" stroke="#e2e8f0" stroke-width="1"/>
  <text x="100" y="650" fill="#64748b" font-size="13">1</text>
  <text x="130" y="650" fill="#1e293b" font-size="13" font-weight="500">Hans Mueller</text>
  <text x="320" y="650" fill="#475569" font-size="12">DE-12345678901</text>
  <text x="520" y="650" fill="#475569" font-size="12">IE29AIBK931152...</text>
  <text x="750" y="650" fill="#1e293b" font-size="13">EUR 125,430.50</text>
  <rect x="910" y="635" width="44" height="26" rx="4" fill="#f7f8fa" stroke="#d1d5db" stroke-width="1"/>
  <text x="932" y="653" fill="#2563eb" font-size="11" font-weight="500" text-anchor="middle">Edit</text>
  <rect x="962" y="635" width="55" height="26" rx="4" fill="#f7f8fa" stroke="#d1d5db" stroke-width="1"/>
  <text x="989" y="653" fill="#ef4444" font-size="11" font-weight="500" text-anchor="middle">Delete</text>

  <!-- Table Row 2 -->
  <rect x="80" y="670" width="1040" height="50" fill="#f9fafb"/>
  <line x1="80" y1="720" x2="1120" y2="720" stroke="#e2e8f0" stroke-width="1"/>
  <text x="100" y="700" fill="#64748b" font-size="13">2</text>
  <text x="130" y="700" fill="#1e293b" font-size="13" font-weight="500">Marie Dupont</text>
  <text x="320" y="700" fill="#475569" font-size="12">FR-1234567890123</text>
  <text x="520" y="700" fill="#475569" font-size="12">IE29AIBK931153...</text>
  <text x="750" y="700" fill="#1e293b" font-size="13">EUR 89,200.00</text>
  <rect x="910" y="685" width="44" height="26" rx="4" fill="#f7f8fa" stroke="#d1d5db" stroke-width="1"/>
  <text x="932" y="703" fill="#2563eb" font-size="11" font-weight="500" text-anchor="middle">Edit</text>
  <rect x="962" y="685" width="55" height="26" rx="4" fill="#f7f8fa" stroke="#d1d5db" stroke-width="1"/>
  <text x="989" y="703" fill="#ef4444" font-size="11" font-weight="500" text-anchor="middle">Delete</text>

  <!-- Bottom Actions -->
  <rect x="40" y="970" width="1120" height="80" rx="8" fill="#ffffff" stroke="#e2e8f0" stroke-width="1"/>

  <rect x="80" y="990" width="160" height="42" rx="6" fill="#2563eb"/>
  <text x="160" y="1016" fill="#ffffff" font-size="14" font-weight="500" text-anchor="middle">Validate &amp; Submit</text>

  <rect x="260" y="990" width="140" height="42" rx="6" fill="#ffffff" stroke="#d1d5db" stroke-width="1.5"/>
  <text x="330" y="1016" fill="#374151" font-size="14" font-weight="500" text-anchor="middle">Save as Draft</text>
</svg>