<svg xmlns="http://www.w3.org/2000/svg" viewBox="0 0 1200 600" width="1200" height="600">
  <defs>
    <style>
      text { font-family: Inter, -apple-system, sans-serif; }
    </style>
  </defs>

  <!-- Background -->
  <rect width="1200" height="600" fill="#f8fafc"/>

  <!-- Header Bar -->
  <rect width="1200" height="56" fill="#1a365d"/>
  <text x="24" y="35" fill="#ffffff" font-size="15" font-weight="600">Bermuda Tax Information Reporting Portal</text>

  <!-- Navigation Tabs -->
  <rect x="420" y="16" width="70" height="28" rx="4" fill="rgba(255,255,255,0.15)"/>
  <text x="455" y="35" fill="#ffffff" font-size="13" font-weight="500" text-anchor="middle">Filings</text>
  <rect x="420" y="52" width="70" height="4" fill="#60a5fa"/>
  <text x="535" y="35" fill="rgba(255,255,255,0.7)" font-size="13" font-weight="500">Administration</text>
  <text x="1160" y="35" fill="rgba(255,255,255,0.9)" font-size="12" text-anchor="end">compliance@celticfs.bm &#9662;</text>

  <!-- Success Card -->
  <rect x="250" y="100" width="700" height="440" rx="12" fill="#ffffff" stroke="#86efac" stroke-width="2"/>

  <!-- Large Checkmark Circle -->
  <circle cx="600" cy="185" r="40" fill="#ecfdf5" stroke="#10b981" stroke-width="3"/>
  <path d="M580 185l12 12 24-24" fill="none" stroke="#10b981" stroke-width="4" stroke-linecap="round" stroke-linejoin="round"/>

  <!-- Success Title -->
  <text x="600" y="260" fill="#1e293b" font-size="22" font-weight="600" text-anchor="middle">Filing Submitted Successfully</text>

  <!-- Details -->
  <line x1="380" y1="285" x2="820" y2="285" stroke="#e2e8f0" stroke-width="1"/>

  <!-- Filing Name -->
  <text x="400" y="320" fill="#64748b" font-size="13">Filing:</text>
  <text x="520" y="320" fill="#1e293b" font-size="13" font-weight="500">CRS Annual 2025</text>

  <!-- Reference -->
  <text x="400" y="355" fill="#64748b" font-size="13">Reference:</text>
  <rect x="515" y="339" width="175" height="24" rx="4" fill="#f1f5f9"/>
  <text x="520" y="355" fill="#1e293b" font-size="13" font-weight="600">BM-2025-CRS-00042</text>

  <!-- Submitted Time -->
  <text x="400" y="390" fill="#64748b" font-size="13">Submitted:</text>
  <text x="520" y="390" fill="#1e293b" font-size="13" font-weight="500">15 March 2026, 14:32 BST</text>

  <line x1="380" y1="415" x2="820" y2="415" stroke="#e2e8f0" stroke-width="1"/>

  <!-- Confirmation email notice -->
  <rect x="380" y="430" width="440" height="36" rx="6" fill="#f0fdf4"/>
  <text x="600" y="453" fill="#166534" font-size="12" text-anchor="middle">A confirmation email has been sent to compliance@celticfs.bm</text>

  <!-- Action Buttons -->
  <rect x="400" y="490" width="200" height="40" rx="6" fill="#2563eb"/>
  <text x="500" y="515" fill="#ffffff" font-size="14" font-weight="500" text-anchor="middle">View Submission History</text>

  <text x="680" y="515" fill="#2563eb" font-size="14" font-weight="500">Create New Filing</text>
</svg>