<svg xmlns="http://www.w3.org/2000/svg" viewBox="0 0 1200 800" width="1200" height="800">
  <defs>
    <style>
      text { font-family: Inter, -apple-system, sans-serif; }
      .header-text { fill: #ffffff; font-size: 16px; font-weight: 600; }
      .nav-text { fill: #cbd5e1; font-size: 13px; }
      .nav-active { fill: #ffffff; font-weight: 600; }
      .title { fill: #1e293b; font-size: 20px; font-weight: 700; }
      .label { fill: #64748b; font-size: 12px; }
      .cell { fill: #334155; font-size: 12px; }
      .cell-bold { fill: #1e293b; font-size: 12px; font-weight: 600; }
      .th { fill: #64748b; font-size: 11px; font-weight: 600; text-transform: uppercase; }
      .badge-green { fill: #059669; font-size: 11px; font-weight: 600; }
      .badge-blue { fill: #2563eb; font-size: 11px; font-weight: 600; }
      .badge-red { fill: #dc2626; font-size: 11px; font-weight: 600; }
      .btn-text { fill: #ffffff; font-size: 12px; font-weight: 600; }
      .pagination { fill: #64748b; font-size: 12px; }
      .filter-text { fill: #334155; font-size: 12px; }
    </style>
  </defs>

  <!-- Background -->
  <rect width="1200" height="800" fill="#f8fafc"/>

  <!-- Header -->
  <rect width="1200" height="56" fill="#1a365d"/>
  <text x="24" y="34" class="header-text">Bermuda Tax Information Reporting Portal — Administration</text>

  <!-- Navigation -->
  <rect x="0" y="56" width="1200" height="40" fill="#1e3a5f"/>
  <rect x="24" y="62" width="100" height="28" rx="4" fill="#2563eb"/>
  <text x="48" y="80" class="nav-active" font-size="12">Submissions</text>
  <text x="152" y="80" class="nav-text">Enrolments</text>
  <text x="248" y="80" class="nav-text">Transmission</text>
  <text x="348" y="80" class="nav-text">Analytics</text>

  <!-- Filter Bar -->
  <rect x="0" y="96" width="1200" height="56" fill="#ffffff" stroke="#e2e8f0" stroke-width="1"/>

  <!-- Status dropdown -->
  <rect x="24" y="110" width="100" height="30" rx="4" fill="#ffffff" stroke="#cbd5e1" stroke-width="1"/>
  <text x="34" y="129" class="filter-text">All ▾</text>
  <text x="24" y="106" class="label">Status</text>

  <!-- Jurisdiction dropdown -->
  <rect x="140" y="110" width="110" height="30" rx="4" fill="#ffffff" stroke="#cbd5e1" stroke-width="1"/>
  <text x="150" y="129" class="filter-text">All ▾</text>
  <text x="140" y="106" class="label">Jurisdiction</text>

  <!-- Module dropdown -->
  <rect x="266" y="110" width="90" height="30" rx="4" fill="#ffffff" stroke="#cbd5e1" stroke-width="1"/>
  <text x="276" y="129" class="filter-text">CRS ▾</text>
  <text x="266" y="106" class="label">Module</text>

  <!-- Period dropdown -->
  <rect x="372" y="110" width="90" height="30" rx="4" fill="#ffffff" stroke="#cbd5e1" stroke-width="1"/>
  <text x="382" y="129" class="filter-text">2025 ▾</text>
  <text x="372" y="106" class="label">Period</text>

  <!-- Search box -->
  <rect x="478" y="110" width="220" height="30" rx="4" fill="#ffffff" stroke="#cbd5e1" stroke-width="1"/>
  <text x="488" y="129" fill="#94a3b8" font-size="12" font-family="Inter, -apple-system, sans-serif">Search filings...</text>

  <!-- Table -->
  <rect x="24" y="168" width="1152" height="40" fill="#f1f5f9" rx="6"/>

  <!-- Table Header -->
  <rect x="24" y="168" width="1152" height="36" rx="6" fill="#f1f5f9"/>
  <rect x="40" y="180" width="14" height="14" rx="2" fill="none" stroke="#94a3b8" stroke-width="1.5"/>
  <text x="80" y="191" class="th">Filing Ref</text>
  <text x="240" y="191" class="th">Entity Name</text>
  <text x="480" y="191" class="th">Type</text>
  <text x="550" y="191" class="th">Period</text>
  <text x="630" y="191" class="th">Status</text>
  <text x="780" y="191" class="th">Submitted</text>
  <text x="910" y="191" class="th">Actions</text>

  <!-- Row 1 -->
  <rect x="24" y="204" width="1152" height="48" fill="#ffffff"/>
  <line x1="24" y1="252" x2="1176" y2="252" stroke="#e2e8f0" stroke-width="1"/>
  <rect x="40" y="222" width="14" height="14" rx="2" fill="#2563eb" stroke="#2563eb" stroke-width="1.5"/>
  <text x="44" y="233" fill="#ffffff" font-size="10" font-weight="bold">✓</text>
  <text x="80" y="233" class="cell-bold">BM-2025-CRS-042</text>
  <text x="240" y="233" class="cell">Celtic Financial Services</text>
  <text x="480" y="233" class="cell">CRS</text>
  <text x="550" y="233" class="cell">2025</text>
  <circle cx="638" cy="229" r="4" fill="#059669"/>
  <text x="648" y="233" class="badge-green">VALIDATED</text>
  <text x="780" y="233" class="cell">15 Mar 2026</text>
  <rect x="900" y="218" width="50" height="26" rx="4" fill="#eff6ff" stroke="#2563eb" stroke-width="1"/>
  <text x="913" y="235" fill="#2563eb" font-size="11" font-family="Inter, -apple-system, sans-serif">View</text>

  <!-- Row 2 -->
  <rect x="24" y="252" width="1152" height="48" fill="#f8fafc"/>
  <line x1="24" y1="300" x2="1176" y2="300" stroke="#e2e8f0" stroke-width="1"/>
  <rect x="40" y="270" width="14" height="14" rx="2" fill="#2563eb" stroke="#2563eb" stroke-width="1.5"/>
  <text x="44" y="281" fill="#ffffff" font-size="10" font-weight="bold">✓</text>
  <text x="80" y="281" class="cell-bold">BM-2025-CRS-043</text>
  <text x="240" y="281" class="cell">Dublin Investment Bank</text>
  <text x="480" y="281" class="cell">CRS</text>
  <text x="550" y="281" class="cell">2025</text>
  <circle cx="638" cy="277" r="4" fill="#059669"/>
  <text x="648" y="281" class="badge-green">VALIDATED</text>
  <text x="780" y="281" class="cell">16 Mar 2026</text>
  <rect x="900" y="266" width="50" height="26" rx="4" fill="#eff6ff" stroke="#2563eb" stroke-width="1"/>
  <text x="913" y="283" fill="#2563eb" font-size="11" font-family="Inter, -apple-system, sans-serif">View</text>

  <!-- Row 3 -->
  <rect x="24" y="300" width="1152" height="48" fill="#ffffff"/>
  <line x1="24" y1="348" x2="1176" y2="348" stroke="#e2e8f0" stroke-width="1"/>
  <rect x="40" y="318" width="14" height="14" rx="2" fill="none" stroke="#94a3b8" stroke-width="1.5"/>
  <text x="80" y="329" class="cell-bold">BM-2025-CRS-044</text>
  <text x="240" y="329" class="cell">Thames Capital Ltd</text>
  <text x="480" y="329" class="cell">CRS</text>
  <text x="550" y="329" class="cell">2025</text>
  <circle cx="638" cy="325" r="4" fill="#2563eb"/>
  <text x="648" y="329" class="badge-blue">SUBMITTED</text>
  <text x="780" y="329" class="cell">17 Mar 2026</text>
  <rect x="900" y="314" width="50" height="26" rx="4" fill="#eff6ff" stroke="#2563eb" stroke-width="1"/>
  <text x="913" y="331" fill="#2563eb" font-size="11" font-family="Inter, -apple-system, sans-serif">View</text>

  <!-- Row 4 -->
  <rect x="24" y="348" width="1152" height="48" fill="#f8fafc"/>
  <line x1="24" y1="396" x2="1176" y2="396" stroke="#e2e8f0" stroke-width="1"/>
  <rect x="40" y="366" width="14" height="14" rx="2" fill="none" stroke="#94a3b8" stroke-width="1.5"/>
  <text x="80" y="377" class="cell-bold">BM-2025-CBC-011</text>
  <text x="240" y="377" class="cell">Schneider Finanz (UPE)</text>
  <text x="480" y="377" class="cell">CbC</text>
  <text x="550" y="377" class="cell">2025</text>
  <circle cx="638" cy="373" r="4" fill="#dc2626"/>
  <text x="648" y="377" class="badge-red">REJECTED</text>
  <text x="780" y="377" class="cell">14 Mar 2026</text>
  <rect x="900" y="362" width="50" height="26" rx="4" fill="#eff6ff" stroke="#2563eb" stroke-width="1"/>
  <text x="913" y="379" fill="#2563eb" font-size="11" font-family="Inter, -apple-system, sans-serif">View</text>

  <!-- More rows indicator -->
  <rect x="24" y="396" width="1152" height="48" fill="#ffffff"/>
  <line x1="24" y1="444" x2="1176" y2="444" stroke="#e2e8f0" stroke-width="1"/>
  <rect x="40" y="414" width="14" height="14" rx="2" fill="none" stroke="#94a3b8" stroke-width="1.5"/>
  <text x="80" y="425" class="cell-bold">BM-2025-CRS-045</text>
  <text x="240" y="425" class="cell">Bermuda Re Capital</text>
  <text x="480" y="425" class="cell">CRS</text>
  <text x="550" y="425" class="cell">2025</text>
  <circle cx="638" cy="421" r="4" fill="#059669"/>
  <text x="648" y="425" class="badge-green">VALIDATED</text>
  <text x="780" y="425" class="cell">17 Mar 2026</text>
  <rect x="900" y="410" width="50" height="26" rx="4" fill="#eff6ff" stroke="#2563eb" stroke-width="1"/>
  <text x="913" y="427" fill="#2563eb" font-size="11" font-family="Inter, -apple-system, sans-serif">View</text>

  <!-- Pagination -->
  <text x="24" y="480" class="pagination">Showing 1-25 of 142 submissions</text>

  <!-- Floating Action Bar -->
  <rect x="200" y="720" width="800" height="56" rx="12" fill="#1e293b" filter="url(#shadow)"/>
  <text x="240" y="753" fill="#ffffff" font-size="13" font-family="Inter, -apple-system, sans-serif">2 filings selected</text>
  <rect x="580" y="734" width="160" height="34" rx="6" fill="#059669"/>
  <text x="608" y="756" class="btn-text">Transmit Selected ▶</text>
  <rect x="760" y="734" width="70" height="34" rx="6" fill="none" stroke="#94a3b8" stroke-width="1"/>
  <text x="780" y="756" fill="#cbd5e1" font-size="12" font-family="Inter, -apple-system, sans-serif">Clear</text>

  <!-- Shadow filter -->
  <defs>
    <filter id="shadow" x="-4%" y="-10%" width="108%" height="130%">
      <feDropShadow dx="0" dy="4" stdDeviation="8" flood-opacity="0.25"/>
    </filter>
  </defs>
</svg>