<svg xmlns="http://www.w3.org/2000/svg" viewBox="0 0 1200 900" width="1200" height="900">
  <defs>
    <style>
      text { font-family: Inter, -apple-system, sans-serif; }
      .header-text { fill: #ffffff; font-size: 16px; font-weight: 600; }
      .nav-text { fill: #cbd5e1; font-size: 13px; }
      .nav-active { fill: #ffffff; font-weight: 600; }
      .title { fill: #1e293b; font-size: 22px; font-weight: 700; }
      .subtitle { fill: #64748b; font-size: 14px; }
      .label { fill: #64748b; font-size: 12px; }
      .value { fill: #1e293b; font-size: 13px; font-weight: 500; }
      .card-title { fill: #1e293b; font-size: 14px; font-weight: 600; }
      .check-pass { fill: #059669; font-size: 13px; }
      .btn-text { fill: #ffffff; font-size: 13px; font-weight: 600; }
      .tab-active { fill: #2563eb; font-size: 13px; font-weight: 600; }
      .tab-inactive { fill: #64748b; font-size: 13px; }
    </style>
    <filter id="card-shadow" x="-2%" y="-5%" width="104%" height="115%">
      <feDropShadow dx="0" dy="2" stdDeviation="4" flood-opacity="0.1"/>
    </filter>
  </defs>

  <!-- Background -->
  <rect width="1200" height="900" fill="#f8fafc"/>

  <!-- Header -->
  <rect width="1200" height="56" fill="#1a365d"/>
  <text x="24" y="34" class="header-text">Bermuda Tax Information Reporting Portal — Administration</text>

  <!-- Navigation -->
  <rect x="0" y="56" width="1200" height="40" fill="#1e3a5f"/>
  <rect x="24" y="62" width="100" height="28" rx="4" fill="#2563eb"/>
  <text x="48" y="80" class="nav-active" font-size="12">Submissions</text>
  <text x="152" y="80" class="nav-text">Enrolments</text>
  <text x="248" y="80" class="nav-text">Transmission</text>
  <text x="348" y="80" class="nav-text">Analytics</text>

  <!-- Breadcrumb -->
  <text x="40" y="130" fill="#64748b" font-size="12" font-family="Inter, -apple-system, sans-serif">Submissions / BM-2025-CRS-042</text>

  <!-- Page Title -->
  <text x="40" y="164" class="title">BM-2025-CRS-042</text>
  <!-- Status Badge -->
  <rect x="260" y="148" width="90" height="24" rx="12" fill="#d1fae5"/>
  <text x="278" y="164" fill="#059669" font-size="12" font-weight="600" font-family="Inter, -apple-system, sans-serif">VALIDATED</text>

  <!-- Entity info -->
  <text x="40" y="192" class="subtitle">Celtic Financial Services Ltd | Type: CRS | Period: 31 Dec 2025</text>

  <!-- Tabs -->
  <rect x="40" y="212" width="1120" height="40" fill="#ffffff" rx="0"/>
  <line x1="40" y1="252" x2="1160" y2="252" stroke="#e2e8f0" stroke-width="1"/>
  <text x="60" y="237" class="tab-active">Summary</text>
  <line x1="52" y1="249" x2="120" y2="249" stroke="#2563eb" stroke-width="2"/>
  <text x="160" y="237" class="tab-inactive">Validation Results</text>
  <text x="310" y="237" class="tab-inactive">Transmission History</text>

  <!-- Filing Info Card -->
  <rect x="40" y="270" width="540" height="160" rx="8" fill="#ffffff" filter="url(#card-shadow)"/>
  <text x="64" y="298" class="card-title">Filing Information</text>
  <line x1="64" y1="310" x2="556" y2="310" stroke="#e2e8f0" stroke-width="1"/>

  <text x="64" y="338" class="label">Submitted by</text>
  <text x="180" y="338" class="value">compliance@celticfs.bm</text>

  <text x="64" y="364" class="label">Date</text>
  <text x="180" y="364" class="value">15 Mar 2026</text>

  <text x="64" y="390" class="label">Records</text>
  <text x="180" y="390" class="value">47 accounts</text>

  <text x="64" y="416" class="label">File Size</text>
  <text x="180" y="416" class="value">2.4 MB (XML)</text>

  <!-- Validation Summary Card -->
  <rect x="600" y="270" width="560" height="160" rx="8" fill="#ffffff" filter="url(#card-shadow)"/>
  <text x="624" y="298" class="card-title">Validation Summary</text>
  <line x1="624" y1="310" x2="1136" y2="310" stroke="#e2e8f0" stroke-width="1"/>

  <!-- Stage 1 -->
  <rect x="624" y="322" width="22" height="22" rx="11" fill="#d1fae5"/>
  <text x="630" y="338" fill="#059669" font-size="13" font-weight="bold" font-family="Inter, -apple-system, sans-serif">✓</text>
  <text x="656" y="338" class="value">Stage 1 — XSD Schema Validation</text>

  <!-- Stage 2 -->
  <rect x="624" y="352" width="22" height="22" rx="11" fill="#d1fae5"/>
  <text x="630" y="368" fill="#059669" font-size="13" font-weight="bold" font-family="Inter, -apple-system, sans-serif">✓</text>
  <text x="656" y="368" class="value">Stage 2 — Business Rules</text>

  <!-- Stage 3 -->
  <rect x="624" y="382" width="22" height="22" rx="11" fill="#d1fae5"/>
  <text x="630" y="398" fill="#059669" font-size="13" font-weight="bold" font-family="Inter, -apple-system, sans-serif">✓</text>
  <text x="656" y="398" class="value">Stage 3 — Cross-Record Checks</text>

  <!-- Stage 4 -->
  <rect x="624" y="412" width="22" height="22" rx="11" fill="#d1fae5"/>
  <text x="630" y="428" fill="#059669" font-size="13" font-weight="bold" font-family="Inter, -apple-system, sans-serif">✓</text>
  <text x="656" y="428" class="value">Stage 4 — Jurisdiction Validation</text>

  <!-- Actions Section -->
  <rect x="40" y="450" width="1120" height="180" rx="8" fill="#ffffff" filter="url(#card-shadow)"/>
  <text x="64" y="480" class="card-title">Review Actions</text>
  <line x1="64" y1="492" x2="1136" y2="492" stroke="#e2e8f0" stroke-width="1"/>

  <!-- Approve Button -->
  <rect x="64" y="510" width="180" height="40" rx="6" fill="#059669"/>
  <text x="100" y="535" class="btn-text">Approve &amp; Transmit ▶</text>

  <!-- Reject Button -->
  <rect x="264" y="510" width="100" height="40" rx="6" fill="none" stroke="#dc2626" stroke-width="1.5"/>
  <text x="286" y="535" fill="#dc2626" font-size="13" font-weight="600" font-family="Inter, -apple-system, sans-serif">Reject ✗</text>

  <!-- Return Button -->
  <rect x="384" y="510" width="180" height="40" rx="6" fill="none" stroke="#d97706" stroke-width="1.5"/>
  <text x="404" y="535" fill="#d97706" font-size="13" font-weight="600" font-family="Inter, -apple-system, sans-serif">Return for Correction</text>

  <!-- Comments -->
  <text x="64" y="580" class="label">Review Notes</text>
  <rect x="64" y="588" width="1080" height="30" rx="4" fill="#f8fafc" stroke="#cbd5e1" stroke-width="1"/>
  <text x="76" y="607" fill="#94a3b8" font-size="12" font-family="Inter, -apple-system, sans-serif">Add review notes...</text>

  <!-- Audit Trail -->
  <rect x="40" y="650" width="1120" height="120" rx="8" fill="#ffffff" filter="url(#card-shadow)"/>
  <text x="64" y="680" class="card-title">Audit Trail</text>
  <line x1="64" y1="692" x2="1136" y2="692" stroke="#e2e8f0" stroke-width="1"/>
  <text x="64" y="716" fill="#64748b" font-size="12" font-family="Inter, -apple-system, sans-serif">15 Mar 2026 10:23 — Submitted by compliance@celticfs.bm</text>
  <text x="64" y="738" fill="#64748b" font-size="12" font-family="Inter, -apple-system, sans-serif">15 Mar 2026 10:24 — Validation pipeline completed (all stages passed)</text>
  <text x="64" y="760" fill="#64748b" font-size="12" font-family="Inter, -apple-system, sans-serif">15 Mar 2026 11:00 — Status changed to VALIDATED</text>
</svg>