<svg xmlns="http://www.w3.org/2000/svg" viewBox="0 0 1200 700" width="1200" height="700">
  <defs>
    <style>
      text { font-family: Inter, -apple-system, sans-serif; }
      .header-text { fill: #ffffff; font-size: 16px; font-weight: 600; }
      .modal-title { fill: #1e293b; font-size: 18px; font-weight: 700; }
      .modal-text { fill: #475569; font-size: 13px; }
      .th { fill: #64748b; font-size: 11px; font-weight: 600; }
      .cell { fill: #334155; font-size: 12px; }
      .cell-bold { fill: #1e293b; font-size: 12px; font-weight: 600; }
      .step-label { fill: #334155; font-size: 12px; }
      .step-done { fill: #059669; font-size: 12px; font-weight: 600; }
      .step-pending { fill: #64748b; font-size: 12px; }
      .btn-text { fill: #ffffff; font-size: 13px; font-weight: 600; }
    </style>
    <filter id="modal-shadow" x="-5%" y="-5%" width="110%" height="115%">
      <feDropShadow dx="0" dy="8" stdDeviation="16" flood-opacity="0.3"/>
    </filter>
  </defs>

  <!-- Background (dimmed page behind) -->
  <rect width="1200" height="700" fill="#f8fafc"/>

  <!-- Header (behind overlay) -->
  <rect width="1200" height="56" fill="#1a365d"/>
  <text x="24" y="34" class="header-text">Bermuda Tax Information Reporting Portal — Administration</text>

  <!-- Navigation -->
  <rect x="0" y="56" width="1200" height="40" fill="#1e3a5f"/>

  <!-- Dimmed overlay -->
  <rect width="1200" height="700" fill="#000000" opacity="0.4"/>

  <!-- Modal Card -->
  <rect x="250" y="60" width="700" height="580" rx="12" fill="#ffffff" filter="url(#modal-shadow)"/>

  <!-- Modal Title -->
  <text x="290" y="104" class="modal-title">Confirm Transmission</text>
  <line x1="290" y1="118" x2="910" y2="118" stroke="#e2e8f0" stroke-width="1"/>

  <!-- Description -->
  <text x="290" y="148" class="modal-text">You are about to transmit 2 filings to partner jurisdictions:</text>

  <!-- Filing Table -->
  <rect x="290" y="165" width="620" height="30" fill="#f1f5f9" rx="4"/>
  <text x="310" y="184" class="th">FILING</text>
  <text x="510" y="184" class="th">DESTINATION</text>
  <text x="720" y="184" class="th">RECORDS</text>

  <line x1="290" y1="195" x2="910" y2="195" stroke="#e2e8f0" stroke-width="1"/>
  <text x="310" y="216" class="cell-bold">BM-2025-CRS-042</text>
  <text x="510" y="216" class="cell">Germany (DE)</text>
  <text x="720" y="216" class="cell">47 accounts</text>

  <line x1="290" y1="230" x2="910" y2="230" stroke="#e2e8f0" stroke-width="1"/>
  <text x="310" y="251" class="cell-bold">BM-2025-CRS-043</text>
  <text x="510" y="251" class="cell">France (FR)</text>
  <text x="720" y="251" class="cell">23 accounts</text>

  <line x1="290" y1="265" x2="910" y2="265" stroke="#e2e8f0" stroke-width="1"/>

  <!-- Transmission Pipeline -->
  <text x="290" y="300" fill="#1e293b" font-size="14" font-weight="600" font-family="Inter, -apple-system, sans-serif">Transmission Pipeline:</text>

  <!-- Step 1 - Complete -->
  <rect x="310" y="316" width="22" height="22" rx="11" fill="#d1fae5"/>
  <text x="316" y="332" fill="#059669" font-size="12" font-weight="bold" font-family="Inter, -apple-system, sans-serif">✓</text>
  <text x="342" y="332" class="step-done">Final Validation</text>

  <!-- Step 2 -->
  <circle cx="321" cy="360" r="10" fill="none" stroke="#cbd5e1" stroke-width="1.5"/>
  <text x="318" y="364" fill="#94a3b8" font-size="9" font-family="Inter, -apple-system, sans-serif">2</text>
  <text x="342" y="364" class="step-pending">Dataset Lock</text>

  <!-- Step 3 -->
  <circle cx="321" cy="392" r="10" fill="none" stroke="#cbd5e1" stroke-width="1.5"/>
  <text x="318" y="396" fill="#94a3b8" font-size="9" font-family="Inter, -apple-system, sans-serif">3</text>
  <text x="342" y="396" class="step-pending">XML Packaging</text>

  <!-- Step 4 -->
  <circle cx="321" cy="424" r="10" fill="none" stroke="#cbd5e1" stroke-width="1.5"/>
  <text x="318" y="428" fill="#94a3b8" font-size="9" font-family="Inter, -apple-system, sans-serif">4</text>
  <text x="342" y="428" class="step-pending">Encryption (recipient public key)</text>

  <!-- Step 5 -->
  <circle cx="321" cy="456" r="10" fill="none" stroke="#cbd5e1" stroke-width="1.5"/>
  <text x="318" y="460" fill="#94a3b8" font-size="9" font-family="Inter, -apple-system, sans-serif">5</text>
  <text x="342" y="460" class="step-pending">Digital Signing</text>

  <!-- Step 6 -->
  <circle cx="321" cy="488" r="10" fill="none" stroke="#cbd5e1" stroke-width="1.5"/>
  <text x="318" y="492" fill="#94a3b8" font-size="9" font-family="Inter, -apple-system, sans-serif">6</text>
  <text x="342" y="492" class="step-pending">SFTP to CTS</text>

  <!-- Step 7 -->
  <circle cx="321" cy="520" r="10" fill="none" stroke="#cbd5e1" stroke-width="1.5"/>
  <text x="318" y="524" fill="#94a3b8" font-size="9" font-family="Inter, -apple-system, sans-serif">7</text>
  <text x="342" y="524" class="step-pending">Await ACK/NACK</text>

  <!-- Vertical connector line -->
  <line x1="321" y1="338" x2="321" y2="350" stroke="#cbd5e1" stroke-width="1.5"/>
  <line x1="321" y1="370" x2="321" y2="382" stroke="#cbd5e1" stroke-width="1.5"/>
  <line x1="321" y1="402" x2="321" y2="414" stroke="#cbd5e1" stroke-width="1.5"/>
  <line x1="321" y1="434" x2="321" y2="446" stroke="#cbd5e1" stroke-width="1.5"/>
  <line x1="321" y1="466" x2="321" y2="478" stroke="#cbd5e1" stroke-width="1.5"/>
  <line x1="321" y1="498" x2="321" y2="510" stroke="#cbd5e1" stroke-width="1.5"/>

  <!-- Buttons -->
  <line x1="290" y1="560" x2="910" y2="560" stroke="#e2e8f0" stroke-width="1"/>

  <!-- Cancel Button -->
  <rect x="620" y="578" width="100" height="38" rx="6" fill="none" stroke="#cbd5e1" stroke-width="1.5"/>
  <text x="648" y="602" fill="#64748b" font-size="13" font-weight="500" font-family="Inter, -apple-system, sans-serif">Cancel</text>

  <!-- Confirm Button -->
  <rect x="740" y="578" width="170" height="38" rx="6" fill="#059669"/>
  <text x="766" y="602" class="btn-text">Confirm &amp; Transmit ▶</text>
</svg>