<svg xmlns="http://www.w3.org/2000/svg" viewBox="0 0 1200 800" width="1200" height="800">
  <defs>
    <style>
      text { font-family: Inter, -apple-system, sans-serif; }
      .header-text { fill: #ffffff; font-size: 16px; font-weight: 600; }
      .nav-text { fill: #cbd5e1; font-size: 13px; }
      .nav-active { fill: #ffffff; font-weight: 600; }
      .title { fill: #1e293b; font-size: 20px; font-weight: 700; }
      .card-number { fill: #1e293b; font-size: 28px; font-weight: 700; }
      .card-label { fill: #64748b; font-size: 12px; }
      .th { fill: #64748b; font-size: 11px; font-weight: 600; }
      .cell { fill: #334155; font-size: 12px; }
      .cell-bold { fill: #1e293b; font-size: 12px; font-weight: 600; }
      .badge-green { fill: #059669; font-size: 11px; font-weight: 600; }
      .badge-red { fill: #dc2626; font-size: 11px; font-weight: 600; }
      .badge-amber { fill: #d97706; font-size: 11px; font-weight: 600; }
    </style>
    <filter id="card-shadow" x="-2%" y="-5%" width="104%" height="115%">
      <feDropShadow dx="0" dy="2" stdDeviation="4" flood-opacity="0.08"/>
    </filter>
  </defs>

  <!-- Background -->
  <rect width="1200" height="800" fill="#f8fafc"/>

  <!-- Header -->
  <rect width="1200" height="56" fill="#1a365d"/>
  <text x="24" y="34" class="header-text">OECD AEOI Tax Information Reporting Portal — Administration</text>

  <!-- Navigation -->
  <rect x="0" y="56" width="1200" height="40" fill="#1e3a5f"/>
  <text x="40" y="80" class="nav-text">Submissions</text>
  <text x="136" y="80" class="nav-text">Enrolments</text>
  <rect x="222" y="62" width="110" height="28" rx="4" fill="#2563eb"/>
  <text x="244" y="80" class="nav-active" font-size="12">Transmission</text>
  <text x="358" y="80" class="nav-text">Analytics</text>

  <!-- Page Title -->
  <text x="40" y="134" class="title">OECD CTS Transmission Status</text>

  <!-- Status Cards -->
  <!-- Dispatched -->
  <rect x="40" y="154" width="260" height="80" rx="8" fill="#ffffff" filter="url(#card-shadow)"/>
  <text x="64" y="190" class="card-number">4</text>
  <text x="64" y="215" class="card-label">Dispatched</text>
  <rect x="270" y="164" width="8" height="60" rx="4" fill="#d97706"/>

  <!-- ACK Received -->
  <rect x="320" y="154" width="260" height="80" rx="8" fill="#ffffff" filter="url(#card-shadow)"/>
  <text x="344" y="190" class="card-number">12</text>
  <text x="344" y="215" class="card-label">ACK Received ✓</text>
  <rect x="550" y="164" width="8" height="60" rx="4" fill="#059669"/>

  <!-- NACK -->
  <rect x="600" y="154" width="260" height="80" rx="8" fill="#ffffff" filter="url(#card-shadow)"/>
  <text x="624" y="190" class="card-number">1</text>
  <text x="624" y="215" class="card-label">NACK ✗</text>
  <rect x="830" y="164" width="8" height="60" rx="4" fill="#dc2626"/>

  <!-- Pending -->
  <rect x="880" y="154" width="260" height="80" rx="8" fill="#ffffff" filter="url(#card-shadow)"/>
  <text x="904" y="190" class="card-number">2</text>
  <text x="904" y="215" class="card-label">Pending</text>
  <rect x="1110" y="164" width="8" height="60" rx="4" fill="#2563eb"/>

  <!-- Table -->
  <rect x="40" y="260" width="1120" height="36" rx="6" fill="#f1f5f9"/>
  <text x="60" y="283" class="th">REF</text>
  <text x="220" y="283" class="th">ENTITY</text>
  <text x="420" y="283" class="th">DESTINATION</text>
  <text x="560" y="283" class="th">DISPATCHED</text>
  <text x="720" y="283" class="th">STATUS</text>
  <text x="880" y="283" class="th">ACK/NACK</text>

  <!-- Row 1 -->
  <rect x="40" y="296" width="1120" height="48" fill="#ffffff"/>
  <line x1="40" y1="344" x2="1160" y2="344" stroke="#e2e8f0" stroke-width="1"/>
  <text x="60" y="325" class="cell-bold">BM-2025-CRS-042</text>
  <text x="220" y="325" class="cell">Celtic FS</text>
  <text x="420" y="325" class="cell">DE</text>
  <text x="560" y="325" class="cell">15 Mar 14:35</text>
  <circle cx="728" cy="321" r="4" fill="#059669"/>
  <text x="738" y="325" class="badge-green">ACK ✓</text>
  <text x="880" y="325" class="cell">16 Mar 09:12</text>

  <!-- Row 2 -->
  <rect x="40" y="344" width="1120" height="48" fill="#f8fafc"/>
  <line x1="40" y1="392" x2="1160" y2="392" stroke="#e2e8f0" stroke-width="1"/>
  <text x="60" y="373" class="cell-bold">BM-2025-CRS-043</text>
  <text x="220" y="373" class="cell">Dublin IB</text>
  <text x="420" y="373" class="cell">FR</text>
  <text x="560" y="373" class="cell">16 Mar 10:20</text>
  <circle cx="728" cy="369" r="4" fill="#059669"/>
  <text x="738" y="373" class="badge-green">ACK ✓</text>
  <text x="880" y="373" class="cell">16 Mar 22:45</text>

  <!-- Row 3 (NACK) -->
  <rect x="40" y="392" width="1120" height="48" fill="#fef2f2"/>
  <line x1="40" y1="440" x2="1160" y2="440" stroke="#fecaca" stroke-width="1"/>
  <text x="60" y="421" class="cell-bold">BM-2025-CBC-009</text>
  <text x="220" y="421" class="cell">Schneider</text>
  <text x="420" y="421" class="cell">DE</text>
  <text x="560" y="421" class="cell">14 Mar 11:00</text>
  <circle cx="728" cy="417" r="4" fill="#dc2626"/>
  <text x="738" y="421" class="badge-red">NACK ✗</text>
  <text x="880" y="421" class="cell">15 Mar 08:30</text>
  <rect x="1010" y="407" width="90" height="26" rx="4" fill="#fef2f2" stroke="#dc2626" stroke-width="1"/>
  <text x="1022" y="424" fill="#dc2626" font-size="11" font-family="Inter, -apple-system, sans-serif">View Errors</text>

  <!-- Row 4 (Dispatched) -->
  <rect x="40" y="440" width="1120" height="48" fill="#ffffff"/>
  <line x1="40" y1="488" x2="1160" y2="488" stroke="#e2e8f0" stroke-width="1"/>
  <text x="60" y="469" class="cell-bold">BM-2025-CRS-045</text>
  <text x="220" y="469" class="cell">Thames</text>
  <text x="420" y="469" class="cell">GB</text>
  <text x="560" y="469" class="cell">17 Mar 16:00</text>
  <circle cx="728" cy="465" r="4" fill="#d97706"/>
  <text x="738" y="469" class="badge-amber">Dispatched</text>
  <text x="880" y="469" class="cell">—</text>

  <!-- Expandable NACK Error Details -->
  <rect x="40" y="500" width="1120" height="110" rx="8" fill="#fef2f2" stroke="#fecaca" stroke-width="1"/>
  <text x="64" y="526" fill="#dc2626" font-size="13" font-weight="600" font-family="Inter, -apple-system, sans-serif">NACK Error Details — BM-2025-CBC-009</text>
  <line x1="64" y1="536" x2="1136" y2="536" stroke="#fecaca" stroke-width="1"/>
  <text x="64" y="558" fill="#991b1b" font-size="12" font-family="Inter, -apple-system, sans-serif">Error Code: 80000 — File Level Error: MessageRefId already exists in receiving jurisdiction</text>
  <text x="64" y="578" fill="#991b1b" font-size="12" font-family="Inter, -apple-system, sans-serif">Detail: MessageRefId "BM2025CBC009" was previously transmitted on 10 Mar 2026.</text>
  <text x="64" y="598" fill="#64748b" font-size="11" font-family="Inter, -apple-system, sans-serif">Resolution: Generate new MessageRefId and re-transmit, or submit as correction (CorrDocRefId required).</text>

  <!-- More rows indicator -->
  <rect x="40" y="625" width="1120" height="48" fill="#f8fafc"/>
  <line x1="40" y1="673" x2="1160" y2="673" stroke="#e2e8f0" stroke-width="1"/>
  <text x="60" y="654" class="cell-bold">BM-2025-CRS-046</text>
  <text x="220" y="654" class="cell">Hamilton Re</text>
  <text x="420" y="654" class="cell">US</text>
  <text x="560" y="654" class="cell">17 Mar 16:30</text>
  <circle cx="728" cy="650" r="4" fill="#d97706"/>
  <text x="738" y="654" class="badge-amber">Dispatched</text>
  <text x="880" y="654" class="cell">—</text>

  <!-- Pagination -->
  <text x="40" y="710" fill="#64748b" font-size="12" font-family="Inter, -apple-system, sans-serif">Showing 1-19 of 19 transmissions</text>
</svg>