<svg xmlns="http://www.w3.org/2000/svg" viewBox="0 0 1200 700" width="1200" height="700">
  <defs>
    <style>
      text { font-family: Inter, -apple-system, sans-serif; }
      .header-text { fill: #ffffff; font-size: 16px; font-weight: 600; }
      .nav-text { fill: #cbd5e1; font-size: 13px; }
      .nav-active { fill: #ffffff; font-weight: 600; }
      .title { fill: #1e293b; font-size: 20px; font-weight: 700; }
      .subtitle { fill: #64748b; font-size: 13px; }
      .th { fill: #64748b; font-size: 11px; font-weight: 600; }
      .cell { fill: #334155; font-size: 12px; }
      .cell-bold { fill: #1e293b; font-size: 12px; font-weight: 600; }
      .badge-green { fill: #059669; font-size: 11px; font-weight: 600; }
      .badge-red { fill: #dc2626; font-size: 11px; font-weight: 600; }
      .badge-blue { fill: #2563eb; font-size: 11px; font-weight: 600; }
      .check-pass { fill: #059669; font-size: 12px; }
      .check-fail { fill: #dc2626; font-size: 12px; }
      .check-pending { fill: #94a3b8; font-size: 12px; }
      .card-number { fill: #1e293b; font-size: 24px; font-weight: 700; }
      .card-label { fill: #64748b; font-size: 11px; }
    </style>
    <filter id="card-shadow" x="-2%" y="-5%" width="104%" height="115%">
      <feDropShadow dx="0" dy="2" stdDeviation="4" flood-opacity="0.08"/>
    </filter>
  </defs>

  <!-- Background -->
  <rect width="1200" height="700" fill="#f8fafc"/>

  <!-- Header -->
  <rect width="1200" height="56" fill="#1a365d"/>
  <text x="24" y="34" class="header-text">OECD AEOI Tax Information Reporting Portal — Administration</text>

  <!-- Navigation -->
  <rect x="0" y="56" width="1200" height="40" fill="#1e3a5f"/>
  <text x="40" y="80" class="nav-text">Submissions</text>
  <text x="136" y="80" class="nav-text">Enrolments</text>
  <text x="232" y="80" class="nav-text">Transmission</text>
  <text x="340" y="80" class="nav-text">Analytics</text>
  <rect x="412" y="62" width="80" height="28" rx="4" fill="#2563eb"/>
  <text x="426" y="80" class="nav-active" font-size="12">Inbound</text>

  <!-- Page Title -->
  <text x="40" y="134" class="title">OECD CTS Inbound Transmissions</text>

  <!-- Status Cards -->
  <rect x="40" y="152" width="220" height="70" rx="8" fill="#ffffff" filter="url(#card-shadow)"/>
  <text x="64" y="184" class="card-number">3</text>
  <text x="64" y="204" class="card-label">Received Today</text>

  <rect x="280" y="152" width="280" height="70" rx="8" fill="#ffffff" filter="url(#card-shadow)"/>
  <text x="304" y="180" fill="#1e293b" font-size="13" font-weight="600" font-family="Inter, -apple-system, sans-serif">OECD CTS Health</text>
  <text x="304" y="202" fill="#64748b" font-size="12" font-family="Inter, -apple-system, sans-serif">All Connected</text>
  <circle cx="530" cy="190" r="6" fill="#059669"/>

  <!-- Poll Status -->
  <rect x="40" y="238" width="1120" height="44" rx="6" fill="#ffffff" stroke="#e2e8f0" stroke-width="1"/>
  <text x="64" y="265" class="subtitle">Last poll: 15 Mar 2026, 16:00 | Next: 20:00</text>
  <rect x="1020" y="248" width="100" height="28" rx="4" fill="#2563eb"/>
  <text x="1044" y="266" fill="#ffffff" font-size="12" font-weight="600" font-family="Inter, -apple-system, sans-serif">Poll Now</text>

  <!-- Table -->
  <rect x="40" y="300" width="1120" height="36" rx="6" fill="#f1f5f9"/>
  <text x="60" y="323" class="th">SOURCE</text>
  <text x="180" y="323" class="th">PACKAGE REF</text>
  <text x="360" y="323" class="th">RECEIVED</text>
  <text x="500" y="323" class="th">SIGNATURE</text>
  <text x="620" y="323" class="th">DECRYPTION</text>
  <text x="740" y="323" class="th">XSD</text>
  <text x="840" y="323" class="th">STATUS</text>

  <!-- Row 1 -->
  <rect x="40" y="336" width="1120" height="52" fill="#ffffff"/>
  <line x1="40" y1="388" x2="1160" y2="388" stroke="#e2e8f0" stroke-width="1"/>
  <text x="60" y="367" class="cell-bold">Germany (DE)</text>
  <text x="180" y="367" class="cell">DE-BM-2025-001</text>
  <text x="360" y="367" class="cell">15 Mar 14:20</text>
  <text x="500" y="367" class="check-pass">✓ Valid</text>
  <text x="620" y="367" class="check-pass">✓ OK</text>
  <text x="740" y="367" class="check-pass">✓ Pass</text>
  <circle cx="848" cy="363" r="4" fill="#059669"/>
  <text x="858" y="367" class="badge-green">INGESTED</text>

  <!-- Row 2 -->
  <rect x="40" y="388" width="1120" height="52" fill="#fef2f2"/>
  <line x1="40" y1="440" x2="1160" y2="440" stroke="#fecaca" stroke-width="1"/>
  <text x="60" y="419" class="cell-bold">France (FR)</text>
  <text x="180" y="419" class="cell">FR-BM-2025-003</text>
  <text x="360" y="419" class="cell">15 Mar 16:45</text>
  <text x="500" y="419" class="check-pass">✓ Valid</text>
  <text x="620" y="419" class="check-pass">✓ OK</text>
  <text x="740" y="419" class="check-fail">✗ Fail</text>
  <circle cx="848" cy="415" r="4" fill="#dc2626"/>
  <text x="858" y="419" class="badge-red">ERROR</text>
  <rect x="1050" y="405" width="60" height="24" rx="4" fill="#fef2f2" stroke="#dc2626" stroke-width="1"/>
  <text x="1064" y="421" fill="#dc2626" font-size="11" font-family="Inter, -apple-system, sans-serif">View</text>

  <!-- Row 3 -->
  <rect x="40" y="440" width="1120" height="52" fill="#ffffff"/>
  <line x1="40" y1="492" x2="1160" y2="492" stroke="#e2e8f0" stroke-width="1"/>
  <text x="60" y="471" class="cell-bold">UK (GB)</text>
  <text x="180" y="471" class="cell">GB-BM-2025-007</text>
  <text x="360" y="471" class="cell">15 Mar 17:00</text>
  <text x="500" y="471" class="check-pending">○ Pending</text>
  <text x="620" y="471" fill="#94a3b8" font-size="12" font-family="Inter, -apple-system, sans-serif">—</text>
  <text x="740" y="471" fill="#94a3b8" font-size="12" font-family="Inter, -apple-system, sans-serif">—</text>
  <circle cx="848" cy="467" r="4" fill="#2563eb"/>
  <text x="858" y="471" class="badge-blue">RECEIVED</text>

  <!-- Error details for Row 2 -->
  <rect x="40" y="510" width="1120" height="80" rx="8" fill="#fef2f2" stroke="#fecaca" stroke-width="1"/>
  <text x="64" y="536" fill="#dc2626" font-size="13" font-weight="600" font-family="Inter, -apple-system, sans-serif">XSD Validation Error — FR-BM-2025-003</text>
  <line x1="64" y1="546" x2="1136" y2="546" stroke="#fecaca" stroke-width="1"/>
  <text x="64" y="566" fill="#991b1b" font-size="12" font-family="Inter, -apple-system, sans-serif">Error: Element 'ResCountryCode' — value 'XX' is not valid (line 847, col 42)</text>
  <text x="64" y="584" fill="#64748b" font-size="11" font-family="Inter, -apple-system, sans-serif">Action: NACK has been sent to France (FR). Package stored for manual review.</text>

  <!-- Inbound processing pipeline legend -->
  <rect x="40" y="610" width="1120" height="70" rx="8" fill="#ffffff" filter="url(#card-shadow)"/>
  <text x="64" y="636" fill="#1e293b" font-size="13" font-weight="600" font-family="Inter, -apple-system, sans-serif">Processing Pipeline</text>
  <text x="64" y="660" fill="#64748b" font-size="11" font-family="Inter, -apple-system, sans-serif">Receive → Signature Verify → Decrypt → XSD Validate → Business Rules → Ingest → Notify Local FIs</text>

  <!-- Pipeline step indicators -->
  <rect x="620" y="648" width="16" height="16" rx="8" fill="#d1fae5"/>
  <text x="642" y="660" fill="#059669" font-size="11" font-family="Inter, -apple-system, sans-serif">= Pass</text>
  <rect x="710" y="648" width="16" height="16" rx="8" fill="#fee2e2"/>
  <text x="732" y="660" fill="#dc2626" font-size="11" font-family="Inter, -apple-system, sans-serif">= Fail</text>
  <rect x="790" y="648" width="16" height="16" rx="8" fill="#e2e8f0"/>
  <text x="812" y="660" fill="#94a3b8" font-size="11" font-family="Inter, -apple-system, sans-serif">= Pending</text>
</svg>