<svg xmlns="http://www.w3.org/2000/svg" viewBox="0 0 1200 900" width="1200" height="900">
  <defs>
    <style>
      text { font-family: Inter, -apple-system, sans-serif; }
    </style>
  </defs>

  <!-- Background -->
  <rect width="1200" height="900" fill="#f8fafc"/>

  <!-- Header -->
  <rect width="1200" height="64" fill="#1a365d"/>
  <text x="40" y="38" fill="white" font-size="18" font-weight="700">OECD AEOI Tax Information Reporting Portal</text>
  <!-- Nav -->
  <rect x="520" y="18" width="80" height="30" rx="4" fill="#2d4a7a"/>
  <text x="540" y="38" fill="white" font-size="13" font-weight="500">Filings</text>
  <rect x="610" y="18" width="120" height="30" rx="4" fill="transparent"/>
  <text x="622" y="38" fill="#94a3b8" font-size="13" font-weight="500">Administration</text>

  <!-- Page Title -->
  <text x="40" y="110" fill="#1e293b" font-size="22" font-weight="700">OECD CTS Error Notification — CRS Annual 2025</text>

  <!-- Status Timeline -->
  <rect x="40" y="130" width="1120" height="70" rx="8" fill="white" stroke="#e2e8f0" stroke-width="1"/>
  <!-- Step 1: Submitted -->
  <circle cx="160" cy="165" r="14" fill="#059669"/>
  <text x="160" y="170" fill="white" font-size="12" text-anchor="middle" font-weight="700">✓</text>
  <text x="160" y="190" fill="#1e293b" font-size="11" text-anchor="middle">Submitted</text>
  <line x1="174" y1="165" x2="326" y2="165" stroke="#059669" stroke-width="2"/>
  <!-- Step 2: Validated -->
  <circle cx="340" cy="165" r="14" fill="#059669"/>
  <text x="340" y="170" fill="white" font-size="12" text-anchor="middle" font-weight="700">✓</text>
  <text x="340" y="190" fill="#1e293b" font-size="11" text-anchor="middle">Validated</text>
  <line x1="354" y1="165" x2="506" y2="165" stroke="#059669" stroke-width="2"/>
  <!-- Step 3: Transmitted -->
  <circle cx="520" cy="165" r="14" fill="#059669"/>
  <text x="520" y="170" fill="white" font-size="12" text-anchor="middle" font-weight="700">✓</text>
  <text x="520" y="190" fill="#1e293b" font-size="11" text-anchor="middle">Transmitted</text>
  <line x1="534" y1="165" x2="686" y2="165" stroke="#dc2626" stroke-width="2"/>
  <!-- Step 4: Partner Response -->
  <circle cx="700" cy="165" r="14" fill="#dc2626"/>
  <text x="700" y="170" fill="white" font-size="12" text-anchor="middle" font-weight="700">✗</text>
  <text x="700" y="190" fill="#dc2626" font-size="11" text-anchor="middle" font-weight="600">Partner Response: ERRORS</text>

  <!-- Error Notification Card -->
  <rect x="40" y="220" width="1120" height="90" rx="8" fill="#fef2f2" stroke="#dc2626" stroke-width="2"/>
  <rect x="40" y="220" width="5" height="90" fill="#dc2626"/>
  <text x="70" y="252" fill="#991b1b" font-size="15" font-weight="700">Errors received via OECD Common Transmission System: 3 record errors from Germany (DE) on 16 March 2026</text>
  <text x="70" y="278" fill="#991b1b" font-size="13">You must submit a correction within 60 days (by 15 May 2026)</text>
  <!-- Urgency badge -->
  <rect x="70" y="286" width="90" height="20" rx="10" fill="#dc2626"/>
  <text x="115" y="300" fill="white" font-size="10" text-anchor="middle" font-weight="600">ACTION REQUIRED</text>

  <!-- Error Table -->
  <rect x="40" y="330" width="1120" height="40" rx="6" fill="#f1f5f9"/>
  <text x="60" y="355" fill="#475569" font-size="12" font-weight="700">Record</text>
  <text x="260" y="355" fill="#475569" font-size="12" font-weight="700">Error Code</text>
  <text x="370" y="355" fill="#475569" font-size="12" font-weight="700">Description</text>
  <text x="640" y="355" fill="#475569" font-size="12" font-weight="700">Field</text>
  <text x="870" y="355" fill="#475569" font-size="12" font-weight="700">Action</text>

  <!-- Row 1 -->
  <rect x="40" y="370" width="1120" height="50" fill="white" stroke="#e2e8f0" stroke-width="1"/>
  <rect x="40" y="370" width="4" height="50" fill="#dc2626"/>
  <text x="60" y="392" fill="#1e293b" font-size="12" font-weight="600">Account #3</text>
  <text x="60" y="408" fill="#64748b" font-size="11">(Hans Mueller)</text>
  <text x="260" y="400" fill="#dc2626" font-size="12" font-weight="600">80001</text>
  <text x="370" y="400" fill="#1e293b" font-size="12">"DocRefID format invalid"</text>
  <text x="640" y="400" fill="#475569" font-size="12">DocSpec.DocRefID</text>
  <rect x="860" y="386" width="90" height="28" rx="4" fill="white" stroke="#2563eb" stroke-width="1"/>
  <text x="880" y="405" fill="#2563eb" font-size="11" font-weight="500">View Details</text>

  <!-- Row 2 -->
  <rect x="40" y="420" width="1120" height="50" fill="#f8fafc" stroke="#e2e8f0" stroke-width="1"/>
  <rect x="40" y="420" width="4" height="50" fill="#dc2626"/>
  <text x="60" y="442" fill="#1e293b" font-size="12" font-weight="600">Account #7</text>
  <text x="60" y="458" fill="#64748b" font-size="11">(Schneider GmbH)</text>
  <text x="260" y="450" fill="#dc2626" font-size="12" font-weight="600">80002</text>
  <text x="370" y="450" fill="#1e293b" font-size="12">"CorrDocRefId unknown"</text>
  <text x="640" y="450" fill="#475569" font-size="12">DocSpec.CorrDocRefID</text>
  <rect x="860" y="436" width="90" height="28" rx="4" fill="white" stroke="#2563eb" stroke-width="1"/>
  <text x="880" y="455" fill="#2563eb" font-size="11" font-weight="500">View Details</text>

  <!-- Row 3 -->
  <rect x="40" y="470" width="1120" height="50" fill="white" stroke="#e2e8f0" stroke-width="1"/>
  <rect x="40" y="470" width="4" height="50" fill="#dc2626"/>
  <text x="60" y="492" fill="#1e293b" font-size="12" font-weight="600">Account #12</text>
  <text x="60" y="508" fill="#64748b" font-size="11">(Pierre Martin)</text>
  <text x="260" y="500" fill="#dc2626" font-size="12" font-weight="600">80005</text>
  <text x="370" y="500" fill="#1e293b" font-size="12">"Missing CorrDocRefId"</text>
  <text x="640" y="500" fill="#475569" font-size="12">DocSpec.CorrDocRefID</text>
  <rect x="860" y="486" width="90" height="28" rx="4" fill="white" stroke="#2563eb" stroke-width="1"/>
  <text x="880" y="505" fill="#2563eb" font-size="11" font-weight="500">View Details</text>

  <!-- Action Buttons -->
  <rect x="40" y="550" width="210" height="44" rx="6" fill="#2563eb"/>
  <text x="90" y="577" fill="white" font-size="14" font-weight="600">Create Correction Filing ▶</text>
  <rect x="270" y="550" width="200" height="44" rx="6" fill="white" stroke="#2563eb" stroke-width="2"/>
  <text x="310" y="577" fill="#2563eb" font-size="14" font-weight="600">Download Error Report ↓</text>
</svg>