<svg xmlns="http://www.w3.org/2000/svg" viewBox="0 0 1200 700" width="1200" height="700">
  <defs>
    <style>
      text { font-family: Inter, -apple-system, sans-serif; }
    </style>
  </defs>

  <!-- Background -->
  <rect width="1200" height="700" fill="#f8fafc"/>

  <!-- Header -->
  <rect width="1200" height="64" fill="#1a365d"/>
  <text x="40" y="38" fill="white" font-size="18" font-weight="700">OECD AEOI Tax Information Reporting Portal</text>
  <rect x="520" y="18" width="80" height="30" rx="4" fill="#2d4a7a"/>
  <text x="540" y="38" fill="white" font-size="13" font-weight="500">Filings</text>
  <rect x="610" y="18" width="120" height="30" rx="4" fill="transparent"/>
  <text x="622" y="38" fill="#94a3b8" font-size="13" font-weight="500">Administration</text>

  <!-- Page Title -->
  <text x="40" y="110" fill="#1e293b" font-size="22" font-weight="700">Create Correction — CRS Annual 2025</text>

  <!-- Info Banner -->
  <rect x="40" y="130" width="1120" height="44" rx="6" fill="#eff6ff" stroke="#2563eb" stroke-width="1"/>
  <rect x="40" y="130" width="4" height="44" fill="#2563eb"/>
  <text x="70" y="157" fill="#1e40af" font-size="13">This correction references filing BM-2025-CRS-042 (MessageRefID: BM2025CRS042)</text>

  <!-- Form Card -->
  <rect x="40" y="194" width="1120" height="460" rx="8" fill="white" stroke="#e2e8f0" stroke-width="1"/>

  <!-- Message Type -->
  <text x="70" y="230" fill="#374151" font-size="13" font-weight="600">Message Type</text>
  <rect x="70" y="238" width="400" height="38" rx="4" fill="#f1f5f9" stroke="#d1d5db" stroke-width="1"/>
  <text x="85" y="262" fill="#6b7280" font-size="13">OECD CRS Correction (CRS702)</text>
  <rect x="420" y="244" width="40" height="26" rx="3" fill="#e5e7eb"/>
  <text x="428" y="262" fill="#6b7280" font-size="10">READ</text>

  <!-- Upload Section -->
  <text x="70" y="310" fill="#374151" font-size="13" font-weight="600">Upload corrected XML file</text>
  <text x="70" y="335" fill="#6b7280" font-size="12">Requirements:</text>

  <!-- Requirements list -->
  <text x="90" y="358" fill="#059669" font-size="12">✓</text>
  <text x="110" y="358" fill="#374151" font-size="12">OECD MessageTypeIndic must be CRS702</text>
  <text x="90" y="382" fill="#059669" font-size="12">✓</text>
  <text x="110" y="382" fill="#374151" font-size="12">OECD DocTypeIndic must be OECD2 (corrected) or OECD3 (deleted)</text>
  <text x="90" y="406" fill="#059669" font-size="12">✓</text>
  <text x="110" y="406" fill="#374151" font-size="12">CorrDocRefID must reference original record's DocRefID</text>
  <text x="90" y="430" fill="#059669" font-size="12">✓</text>
  <text x="110" y="430" fill="#374151" font-size="12">Full section must be re-submitted (not just changed fields)</text>

  <!-- File Dropzone -->
  <rect x="70" y="450" width="1060" height="120" rx="8" fill="#f8fafc" stroke="#94a3b8" stroke-width="2" stroke-dasharray="8,4"/>
  <text x="600" y="500" fill="#6b7280" font-size="14" text-anchor="middle">Drag and drop your XML file here</text>
  <text x="600" y="525" fill="#94a3b8" font-size="12" text-anchor="middle">or click to browse</text>
  <rect x="545" y="538" width="110" height="28" rx="4" fill="white" stroke="#d1d5db" stroke-width="1"/>
  <text x="570" y="557" fill="#6b7280" font-size="11">Choose File...</text>

  <!-- Buttons -->
  <rect x="70" y="600" width="160" height="40" rx="6" fill="#2563eb"/>
  <text x="100" y="625" fill="white" font-size="14" font-weight="600">Upload &amp; Validate</text>
  <rect x="250" y="600" width="100" height="40" rx="6" fill="white" stroke="#d1d5db" stroke-width="1"/>
  <text x="280" y="625" fill="#6b7280" font-size="14" font-weight="500">Cancel</text>
</svg>