<svg xmlns="http://www.w3.org/2000/svg" viewBox="0 0 1200 700" width="1200" height="700">
  <defs>
    <style>
      text { font-family: Inter, -apple-system, sans-serif; }
    </style>
  </defs>

  <!-- Background -->
  <rect width="1200" height="700" fill="#f8fafc"/>

  <!-- Header -->
  <rect width="1200" height="64" fill="#1a365d"/>
  <text x="40" y="38" fill="white" font-size="18" font-weight="700">OECD AEOI Tax Information Reporting Portal</text>
  <rect x="520" y="18" width="80" height="30" rx="4" fill="#2d4a7a"/>
  <text x="540" y="38" fill="white" font-size="13" font-weight="500">Filings</text>
  <rect x="610" y="18" width="120" height="30" rx="4" fill="transparent"/>
  <text x="622" y="38" fill="#94a3b8" font-size="13" font-weight="500">Administration</text>

  <!-- Breadcrumb -->
  <text x="40" y="95" fill="#6b7280" font-size="12">Filings</text>
  <text x="80" y="95" fill="#6b7280" font-size="12">></text>
  <text x="95" y="95" fill="#2563eb" font-size="12" font-weight="500">View Submissions</text>

  <!-- Page Title -->
  <text x="40" y="126" fill="#1e293b" font-size="22" font-weight="700">Submission History</text>

  <!-- Filters -->
  <rect x="40" y="145" width="130" height="34" rx="4" fill="white" stroke="#d1d5db" stroke-width="1"/>
  <text x="55" y="167" fill="#6b7280" font-size="12">Type: All ▾</text>
  <rect x="185" y="145" width="150" height="34" rx="4" fill="white" stroke="#d1d5db" stroke-width="1"/>
  <text x="200" y="167" fill="#6b7280" font-size="12">Period: All ▾</text>
  <rect x="350" y="145" width="140" height="34" rx="4" fill="white" stroke="#d1d5db" stroke-width="1"/>
  <text x="365" y="167" fill="#6b7280" font-size="12">Status: All ▾</text>

  <!-- Table Header -->
  <rect x="40" y="200" width="1120" height="40" rx="6" fill="#f1f5f9"/>
  <text x="60" y="225" fill="#475569" font-size="12" font-weight="700">Filing Name</text>
  <text x="260" y="225" fill="#475569" font-size="12" font-weight="700">Type</text>
  <text x="400" y="225" fill="#475569" font-size="12" font-weight="700">Period</text>
  <text x="520" y="225" fill="#475569" font-size="12" font-weight="700">Status</text>
  <text x="680" y="225" fill="#475569" font-size="12" font-weight="700">Submitted</text>
  <text x="800" y="225" fill="#475569" font-size="12" font-weight="700">Records</text>
  <text x="900" y="225" fill="#475569" font-size="12" font-weight="700">Actions</text>

  <!-- Row 1 -->
  <rect x="40" y="240" width="1120" height="48" fill="white" stroke="#e2e8f0" stroke-width="1"/>
  <text x="60" y="270" fill="#1e293b" font-size="12" font-weight="600">CRS Annual 2025</text>
  <text x="260" y="270" fill="#475569" font-size="12">CRS</text>
  <text x="400" y="270" fill="#475569" font-size="12">31 Dec 2025</text>
  <circle cx="530" cy="266" r="5" fill="#059669"/>
  <text x="542" y="270" fill="#059669" font-size="12" font-weight="500">Transmitted ✓</text>
  <text x="680" y="270" fill="#475569" font-size="12">15 Mar 2026</text>
  <text x="800" y="270" fill="#475569" font-size="12">47</text>
  <rect x="890" y="255" width="50" height="24" rx="4" fill="white" stroke="#2563eb" stroke-width="1"/>
  <text x="901" y="272" fill="#2563eb" font-size="10" font-weight="500">View</text>
  <rect x="948" y="255" width="105" height="24" rx="4" fill="white" stroke="#2563eb" stroke-width="1"/>
  <text x="956" y="272" fill="#2563eb" font-size="10" font-weight="500">Download XML ↓</text>

  <!-- Row 2 -->
  <rect x="40" y="288" width="1120" height="48" fill="#f8fafc" stroke="#e2e8f0" stroke-width="1"/>
  <text x="60" y="318" fill="#1e293b" font-size="12" font-weight="600">CRS Correction 2025</text>
  <text x="260" y="318" fill="#475569" font-size="12">CRS (Corrected)</text>
  <text x="400" y="318" fill="#475569" font-size="12">31 Dec 2025</text>
  <circle cx="530" cy="314" r="5" fill="#f59e0b"/>
  <text x="542" y="318" fill="#d97706" font-size="12" font-weight="500">Submitted</text>
  <text x="680" y="318" fill="#475569" font-size="12">20 Mar 2026</text>
  <text x="800" y="318" fill="#475569" font-size="12">3</text>
  <rect x="890" y="303" width="50" height="24" rx="4" fill="white" stroke="#2563eb" stroke-width="1"/>
  <text x="901" y="320" fill="#2563eb" font-size="10" font-weight="500">View</text>

  <!-- Row 3 -->
  <rect x="40" y="336" width="1120" height="48" fill="white" stroke="#e2e8f0" stroke-width="1"/>
  <text x="60" y="366" fill="#1e293b" font-size="12" font-weight="600">CRS Annual 2024</text>
  <text x="260" y="366" fill="#475569" font-size="12">CRS</text>
  <text x="400" y="366" fill="#475569" font-size="12">31 Dec 2024</text>
  <circle cx="530" cy="362" r="5" fill="#059669"/>
  <text x="542" y="366" fill="#059669" font-size="12" font-weight="500">Transmitted ✓</text>
  <text x="680" y="366" fill="#475569" font-size="12">28 Mar 2025</text>
  <text x="800" y="366" fill="#475569" font-size="12">52</text>
  <rect x="890" y="351" width="50" height="24" rx="4" fill="white" stroke="#2563eb" stroke-width="1"/>
  <text x="901" y="368" fill="#2563eb" font-size="10" font-weight="500">View</text>
  <rect x="948" y="351" width="105" height="24" rx="4" fill="white" stroke="#2563eb" stroke-width="1"/>
  <text x="956" y="368" fill="#2563eb" font-size="10" font-weight="500">Download XML ↓</text>

  <!-- Row 4 -->
  <rect x="40" y="384" width="1120" height="48" fill="#f8fafc" stroke="#e2e8f0" stroke-width="1"/>
  <text x="60" y="414" fill="#1e293b" font-size="12" font-weight="600">CbC Report FY2024</text>
  <text x="260" y="414" fill="#475569" font-size="12">CbC</text>
  <text x="400" y="414" fill="#475569" font-size="12">31 Dec 2024</text>
  <circle cx="530" cy="410" r="5" fill="#059669"/>
  <text x="542" y="414" fill="#059669" font-size="12" font-weight="500">Transmitted ✓</text>
  <text x="680" y="414" fill="#475569" font-size="12">15 Apr 2025</text>
  <text x="800" y="414" fill="#475569" font-size="12">—</text>
  <rect x="890" y="399" width="50" height="24" rx="4" fill="white" stroke="#2563eb" stroke-width="1"/>
  <text x="901" y="416" fill="#2563eb" font-size="10" font-weight="500">View</text>
  <rect x="948" y="399" width="105" height="24" rx="4" fill="white" stroke="#2563eb" stroke-width="1"/>
  <text x="956" y="416" fill="#2563eb" font-size="10" font-weight="500">Download XML ↓</text>

  <!-- Row 5 -->
  <rect x="40" y="432" width="1120" height="48" fill="white" stroke="#e2e8f0" stroke-width="1"/>
  <text x="60" y="462" fill="#1e293b" font-size="12" font-weight="600">CRS Nil 2023</text>
  <text x="260" y="462" fill="#475569" font-size="12">CRS (Nil)</text>
  <text x="400" y="462" fill="#475569" font-size="12">31 Dec 2023</text>
  <circle cx="530" cy="458" r="5" fill="#059669"/>
  <text x="542" y="462" fill="#059669" font-size="12" font-weight="500">Transmitted ✓</text>
  <text x="680" y="462" fill="#475569" font-size="12">30 Mar 2024</text>
  <text x="800" y="462" fill="#475569" font-size="12">0</text>
  <rect x="890" y="447" width="50" height="24" rx="4" fill="white" stroke="#2563eb" stroke-width="1"/>
  <text x="901" y="464" fill="#2563eb" font-size="10" font-weight="500">View</text>

  <!-- Pagination hint -->
  <text x="560" y="520" fill="#94a3b8" font-size="12" text-anchor="middle">Showing 5 of 5 submissions</text>
</svg>