<svg xmlns="http://www.w3.org/2000/svg" viewBox="0 0 1200 800" width="1200" height="800">
  <defs>
    <style>
      text { font-family: Inter, -apple-system, sans-serif; }
    </style>
  </defs>

  <!-- Background -->
  <rect width="1200" height="800" fill="#f8fafc"/>

  <!-- Header -->
  <rect width="1200" height="64" fill="#1a365d"/>
  <text x="40" y="38" fill="white" font-size="18" font-weight="700">Bermuda Tax Information Reporting Portal</text>
  <!-- Administration marker -->
  <rect x="460" y="18" width="110" height="30" rx="4" fill="#2d4a7a"/>
  <text x="472" y="38" fill="white" font-size="13" font-weight="500">Administration</text>
  <rect x="880" y="20" width="90" height="26" rx="12" fill="#f59e0b"/>
  <text x="893" y="38" fill="white" font-size="10" font-weight="700">TAX AUTHORITY</text>

  <!-- Page Title -->
  <text x="40" y="108" fill="#1e293b" font-size="22" font-weight="700">Analytics &amp; Insights</text>

  <!-- Metric Cards Row -->
  <!-- Card 1 -->
  <rect x="40" y="125" width="260" height="80" rx="8" fill="white" stroke="#e2e8f0" stroke-width="1"/>
  <text x="60" y="155" fill="#6b7280" font-size="12">Total Filings</text>
  <text x="60" y="185" fill="#1e293b" font-size="28" font-weight="700">142</text>
  <!-- Card 2 -->
  <rect x="320" y="125" width="260" height="80" rx="8" fill="white" stroke="#e2e8f0" stroke-width="1"/>
  <text x="340" y="155" fill="#6b7280" font-size="12">Validated ✓</text>
  <text x="340" y="185" fill="#059669" font-size="28" font-weight="700">128</text>
  <!-- Card 3 -->
  <rect x="600" y="125" width="260" height="80" rx="8" fill="white" stroke="#e2e8f0" stroke-width="1"/>
  <text x="620" y="155" fill="#6b7280" font-size="12">Rejected</text>
  <text x="620" y="185" fill="#dc2626" font-size="28" font-weight="700">8</text>
  <!-- Card 4 -->
  <rect x="880" y="125" width="280" height="80" rx="8" fill="white" stroke="#e2e8f0" stroke-width="1"/>
  <text x="900" y="155" fill="#6b7280" font-size="12">Pass Rate</text>
  <text x="900" y="185" fill="#059669" font-size="28" font-weight="700">96%</text>

  <!-- Chart Area 1: Submissions by Month -->
  <rect x="40" y="225" width="540" height="200" rx="8" fill="white" stroke="#e2e8f0" stroke-width="1"/>
  <text x="60" y="252" fill="#1e293b" font-size="14" font-weight="600">Submissions by Month</text>
  <!-- Y-axis labels -->
  <text x="60" y="290" fill="#9ca3af" font-size="10">40</text>
  <text x="60" y="330" fill="#9ca3af" font-size="10">30</text>
  <text x="60" y="370" fill="#9ca3af" font-size="10">20</text>
  <text x="60" y="400" fill="#9ca3af" font-size="10">10</text>
  <!-- Grid lines -->
  <line x1="85" y1="285" x2="560" y2="285" stroke="#f1f5f9" stroke-width="1"/>
  <line x1="85" y1="325" x2="560" y2="325" stroke="#f1f5f9" stroke-width="1"/>
  <line x1="85" y1="365" x2="560" y2="365" stroke="#f1f5f9" stroke-width="1"/>
  <line x1="85" y1="405" x2="560" y2="405" stroke="#f1f5f9" stroke-width="1"/>
  <!-- Bars -->
  <rect x="110" y="345" width="50" height="65" rx="3" fill="#2563eb" opacity="0.8"/>
  <text x="135" y="418" fill="#6b7280" font-size="10" text-anchor="middle">Oct</text>
  <rect x="185" y="325" width="50" height="85" rx="3" fill="#2563eb" opacity="0.8"/>
  <text x="210" y="418" fill="#6b7280" font-size="10" text-anchor="middle">Nov</text>
  <rect x="260" y="285" width="50" height="125" rx="3" fill="#2563eb" opacity="0.8"/>
  <text x="285" y="418" fill="#6b7280" font-size="10" text-anchor="middle">Dec</text>
  <rect x="335" y="305" width="50" height="105" rx="3" fill="#2563eb" opacity="0.8"/>
  <text x="360" y="418" fill="#6b7280" font-size="10" text-anchor="middle">Jan</text>
  <rect x="410" y="335" width="50" height="75" rx="3" fill="#2563eb" opacity="0.8"/>
  <text x="435" y="418" fill="#6b7280" font-size="10" text-anchor="middle">Feb</text>
  <rect x="485" y="295" width="50" height="115" rx="3" fill="#2563eb" opacity="0.8"/>
  <text x="510" y="418" fill="#6b7280" font-size="10" text-anchor="middle">Mar</text>

  <!-- Chart Area 2: Filings by Jurisdiction -->
  <rect x="600" y="225" width="560" height="200" rx="8" fill="white" stroke="#e2e8f0" stroke-width="1"/>
  <text x="620" y="252" fill="#1e293b" font-size="14" font-weight="600">Filings by Jurisdiction</text>
  <!-- Horizontal Bars -->
  <text x="630" y="283" fill="#475569" font-size="11">DE</text>
  <rect x="660" y="272" width="315" height="18" rx="3" fill="#2563eb" opacity="0.8"/>
  <text x="985" y="285" fill="#475569" font-size="11">45</text>

  <text x="630" y="313" fill="#475569" font-size="11">FR</text>
  <rect x="660" y="302" width="224" height="18" rx="3" fill="#3b82f6" opacity="0.8"/>
  <text x="894" y="315" fill="#475569" font-size="11">32</text>

  <text x="630" y="343" fill="#475569" font-size="11">GB</text>
  <rect x="660" y="332" width="196" height="18" rx="3" fill="#60a5fa" opacity="0.8"/>
  <text x="866" y="345" fill="#475569" font-size="11">28</text>

  <text x="630" y="373" fill="#475569" font-size="11">US</text>
  <rect x="660" y="362" width="147" height="18" rx="3" fill="#93c5fd" opacity="0.8"/>
  <text x="817" y="375" fill="#475569" font-size="11">21</text>

  <text x="620" y="403" fill="#475569" font-size="11">Other</text>
  <rect x="660" y="392" width="112" height="18" rx="3" fill="#bfdbfe" opacity="0.8"/>
  <text x="782" y="405" fill="#475569" font-size="11">16</text>

  <!-- Chart Area 3: Error Rate Trend -->
  <rect x="40" y="445" width="540" height="160" rx="8" fill="white" stroke="#e2e8f0" stroke-width="1"/>
  <text x="60" y="472" fill="#1e293b" font-size="14" font-weight="600">Error Rate Trend</text>
  <!-- Y-axis -->
  <text x="60" y="500" fill="#9ca3af" font-size="10">15%</text>
  <text x="60" y="535" fill="#9ca3af" font-size="10">10%</text>
  <text x="60" y="570" fill="#9ca3af" font-size="10">5%</text>
  <text x="60" y="595" fill="#9ca3af" font-size="10">0%</text>
  <!-- Grid -->
  <line x1="90" y1="495" x2="560" y2="495" stroke="#f1f5f9" stroke-width="1"/>
  <line x1="90" y1="530" x2="560" y2="530" stroke="#f1f5f9" stroke-width="1"/>
  <line x1="90" y1="565" x2="560" y2="565" stroke="#f1f5f9" stroke-width="1"/>
  <line x1="90" y1="590" x2="560" y2="590" stroke="#f1f5f9" stroke-width="1"/>
  <!-- Line chart going down -->
  <polyline points="110,498 190,510 270,518 350,540 430,560 510,575" fill="none" stroke="#dc2626" stroke-width="2.5" stroke-linecap="round" stroke-linejoin="round"/>
  <circle cx="110" cy="498" r="4" fill="#dc2626"/>
  <circle cx="190" cy="510" r="4" fill="#dc2626"/>
  <circle cx="270" cy="518" r="4" fill="#dc2626"/>
  <circle cx="350" cy="540" r="4" fill="#dc2626"/>
  <circle cx="430" cy="560" r="4" fill="#dc2626"/>
  <circle cx="510" cy="575" r="4" fill="#dc2626"/>
  <!-- X-axis labels -->
  <text x="110" y="605" fill="#6b7280" font-size="10" text-anchor="middle">Oct</text>
  <text x="190" y="605" fill="#6b7280" font-size="10" text-anchor="middle">Nov</text>
  <text x="270" y="605" fill="#6b7280" font-size="10" text-anchor="middle">Dec</text>
  <text x="350" y="605" fill="#6b7280" font-size="10" text-anchor="middle">Jan</text>
  <text x="430" y="605" fill="#6b7280" font-size="10" text-anchor="middle">Feb</text>
  <text x="510" y="605" fill="#6b7280" font-size="10" text-anchor="middle">Mar</text>

  <!-- Recent Anomalies Table -->
  <rect x="600" y="445" width="560" height="160" rx="8" fill="white" stroke="#e2e8f0" stroke-width="1"/>
  <text x="620" y="472" fill="#1e293b" font-size="14" font-weight="600">Recent Anomalies</text>

  <!-- Table Header -->
  <rect x="610" y="482" width="540" height="28" rx="4" fill="#f1f5f9"/>
  <text x="625" y="500" fill="#475569" font-size="10" font-weight="700">Entity</text>
  <text x="750" y="500" fill="#475569" font-size="10" font-weight="700">Type</text>
  <text x="850" y="500" fill="#475569" font-size="10" font-weight="700">Description</text>
  <text x="1070" y="500" fill="#475569" font-size="10" font-weight="700">Severity</text>

  <!-- Anomaly Row 1 -->
  <text x="625" y="530" fill="#1e293b" font-size="11" font-weight="500">Dublin IB</text>
  <text x="750" y="530" fill="#475569" font-size="11">Volume Drop</text>
  <text x="850" y="530" fill="#475569" font-size="11">85% fewer records vs. prior year</text>
  <circle cx="1077" cy="526" r="5" fill="#dc2626"/>
  <text x="1088" y="530" fill="#dc2626" font-size="11" font-weight="600">HIGH</text>

  <!-- Anomaly Row 2 -->
  <rect x="610" y="542" width="540" height="30" fill="#f8fafc"/>
  <text x="625" y="562" fill="#1e293b" font-size="11" font-weight="500">Thames Capital</text>
  <text x="750" y="562" fill="#475569" font-size="11">Late Filing</text>
  <text x="850" y="562" fill="#475569" font-size="11">Submitted 45 days past deadline</text>
  <circle cx="1077" cy="558" r="5" fill="#f59e0b"/>
  <text x="1088" y="562" fill="#d97706" font-size="11" font-weight="600">MEDIUM</text>
</svg>